<?xml version="1.0" standalone="yes"?>

<svg version="1.1" viewBox="0.0 0.0 574.5433070866142 400.82152230971127" fill="none" stroke="none" stroke-linecap="square" stroke-miterlimit="10" xmlns="http://www.w3.org/2000/svg" xmlns:xlink="http://www.w3.org/1999/xlink"><clipPath id="p.0"><path d="m0 0l574.54333 0l0 400.82153l-574.54333 0l0 -400.82153z" clip-rule="nonzero"></path></clipPath><g clip-path="url(#p.0)"><path fill="#000000" fill-opacity="0.0" d="m0 0l574.54333 0l0 400.82153l-574.54333 0z" fill-rule="evenodd"></path><path fill="#00afe6" d="m20.67979 59.472443l535.2441 0l0 69.732285l-535.2441 0z" fill-rule="evenodd"></path><path stroke="#000000" stroke-width="1.0" stroke-linejoin="round" stroke-linecap="butt" d="m20.67979 59.472443l535.2441 0l0 69.732285l-535.2441 0z" fill-rule="evenodd"></path><path fill="#2b2b2b" d="m20.67979 173.4357l535.2441 0l0 69.732285l-535.2441 0z" fill-rule="evenodd"></path><path stroke="#000000" stroke-width="1.0" stroke-linejoin="round" stroke-linecap="butt" d="m20.67979 173.4357l535.2441 0l0 69.732285l-535.2441 0z" fill-rule="evenodd"></path><path fill="#000000" fill-opacity="0.0" d="m20.67979 126.90551l535.2441 0l0 31.55906l-535.2441 0z" fill-rule="evenodd"></path><path fill="#000000" d="m33.257915 139.42426l-0.375 2.71875l1.640625 0l0.390625 -2.671875l0.015625 -0.046875l0.90625 0l-0.390625 2.71875l1.1875 0l0 0.90625l-1.296875 0l-0.28125 2.0l1.21875 0l0 0.90625l-1.359375 0l-0.390625 2.75l-0.90625 0l0.390625 -2.75l-1.65625 0l-0.390625 2.75l-0.921875 0l0.390625 -2.75l-1.296875 0l0 -0.90625l1.421875 0l0.28125 -2.0l-1.359375 0l0 -0.90625l1.484375 0l0.375 -2.671875l0.015625 -0.046875l0.90625 0zm-0.78125 5.625l1.65625 0l0.28125 -2.0l-1.65625 0l-0.28125 2.0zm8.318726 -5.796875q0.796875 0 1.375 0.265625q0.578125 0.25 0.984375 0.78125q0.796875 1.015625 0.796875 3.765625q0 1.375 -0.203125 2.3125q-0.1875 0.921875 -0.59375 1.453125q-0.390625 0.5 -0.984375 0.765625q-0.578125 0.265625 -1.375 0.265625q-1.578125 0 -2.359375 -1.046875q-0.78125 -1.0625 -0.78125 -3.75q0 -2.71875 0.78125 -3.75q0.796875 -1.0625 2.359375 -1.0625zm-1.953125 4.796875q0 1.140625 0.125 1.890625q0.140625 0.734375 0.375 1.140625q0.5 0.78125 1.453125 0.78125q1.046875 0 1.515625 -0.90625q0.21875 -0.453125 0.328125 -1.15625q0.109375 -0.71875 0.109375 -1.703125q0 -0.34375 -0.015625 -0.75q0 -0.40625 -0.0625 -0.828125q-0.046875 -0.421875 -0.171875 -0.828125q-0.109375 -0.40625 -0.3125 -0.71875q-0.21875 -0.3125 -0.5625 -0.515625q-0.328125 -0.203125 -0.84375 -0.203125q-0.453125 0 -0.8125 0.203125q-0.34375 0.1875 -0.609375 0.578125q-0.515625 0.765625 -0.515625 3.015625zm9.365601 -4.796875q0.796875 0 1.375 0.265625q0.578125 0.25 0.984375 0.78125q0.796875 1.015625 0.796875 3.765625q0 1.375 -0.203125 2.3125q-0.1875 0.921875 -0.59375 1.453125q-0.390625 0.5 -0.984375 0.765625q-0.578125 0.265625 -1.375 0.265625q-1.578125 0 -2.359375 -1.046875q-0.78125 -1.0625 -0.78125 -3.75q0 -2.71875 0.78125 -3.75q0.796875 -1.0625 2.359375 -1.0625zm-1.953125 4.796875q0 1.140625 0.125 1.890625q0.140625 0.734375 0.375 1.140625q0.5 0.78125 1.453125 0.78125q1.046875 0 1.515625 -0.90625q0.21875 -0.453125 0.328125 -1.15625q0.109375 -0.71875 0.109375 -1.703125q0 -0.34375 -0.015625 -0.75q0 -0.40625 -0.0625 -0.828125q-0.046875 -0.421875 -0.171875 -0.828125q-0.109375 -0.40625 -0.3125 -0.71875q-0.21875 -0.3125 -0.5625 -0.515625q-0.328125 -0.203125 -0.84375 -0.203125q-0.453125 0 -0.8125 0.203125q-0.34375 0.1875 -0.609375 0.578125q-0.515625 0.765625 -0.515625 3.015625zm10.693726 -4.859375l3.703125 9.515625l-1.390625 0l-1.03125 -2.859375l-4.03125 0l-1.078125 2.859375l-1.296875 0l3.71875 -9.515625l1.40625 0zm-0.75 1.140625l-1.59375 4.4375l3.21875 0l-1.578125 -4.4375l-0.046875 0zm11.635952 -1.140625l0 1.0625l-4.984371 0l0 3.03125l4.374996 0l0 1.0625l-4.374996 0l0 4.359375l-1.25 0l0 -9.515625l6.234371 0zm7.9813843 0l0 1.0625l-5.3125 0l0 3.03125l4.953125 0l0 1.0625l-4.953125 0l0 3.296875l5.359375 0l0 1.0625l-6.609375 0l0 -9.515625l6.5625 0zm4.5163574 0.0625q1.171875 0 1.859375 0.640625q0.703125 0.625 0.8125 1.78125l-1.140625 0q-0.09375 -0.6875 -0.515625 -1.046875q-0.421875 -0.375 -1.0625 -0.375q-1.09375 0 -1.671875 0.921875q-0.578125 0.90625 -0.625 2.65625l0.03125 0.046875q0.375 -0.625 0.953125 -0.9375q0.59375 -0.3125 1.390625 -0.3125q1.296875 0 2.09375 0.859375q0.8125 0.84375 0.8125 2.203125q0 1.359375 -0.828125 2.265625q-0.828125 0.90625 -2.328125 0.90625q-1.609375 0 -2.4375 -1.125q-0.828125 -1.125 -0.828125 -3.421875q0 -2.453125 0.890625 -3.75q0.890625 -1.3125 2.59375 -1.3125zm-2.125 6.5q0 0.9375 0.53125 1.53125q0.546875 0.578125 1.421875 0.578125q0.84375 0 1.375 -0.59375q0.53125 -0.59375 0.53125 -1.5q0 -0.96875 -0.515625 -1.546875q-0.515625 -0.59375 -1.40625 -0.59375q-0.875 0 -1.40625 0.59375q-0.53125 0.59375 -0.53125 1.53125zm13.771713 -1.28125l0 1.0625l-3.859375 0l0 -1.0625l3.859375 0zm8.6553955 -2.8125q0.046875 0 0.078125 0q0.03125 0 0.078125 0l0 1.203125q-1.28125 0 -1.890625 0.671875q-0.59375 0.671875 -0.59375 2.09375l0 3.078125l-1.140625 0l0 -6.890625l1.0625 0l0 1.453125l0.03125 0q0.390625 -0.828125 0.96875 -1.21875q0.59375 -0.390625 1.40625 -0.390625zm3.8133698 0q0.71875 0 1.25 0.3125q0.53125 0.3125 0.8125 0.828125l0.015625 0l0 -0.984375l1.0625 0l0 6.375q0 1.625 -0.78125 2.46875q-0.78125 0.84375 -2.40625 0.84375q-1.1875 0 -2.0 -0.53125q-0.8125 -0.515625 -0.859375 -1.484375l1.125 0q0.03125 0.515625 0.5625 0.8125q0.546875 0.296875 1.21875 0.296875q1.015625 0 1.546875 -0.671875q0.53125 -0.65625 0.53125 -1.953125l0 -0.4375l-0.03125 0q-0.265625 0.578125 -0.84375 0.921875q-0.578125 0.328125 -1.3125 0.328125q-1.390625 0 -2.234375 -0.953125q-0.828125 -0.96875 -0.828125 -2.53125q0 -1.578125 0.828125 -2.609375q0.84375 -1.03125 2.34375 -1.03125zm-1.984375 3.5q0 1.234375 0.515625 1.9375q0.515625 0.6875 1.4375 0.6875q0.9375 0 1.484375 -0.71875q0.5625 -0.734375 0.5625 -1.9375q0 -1.109375 -0.515625 -1.78125q-0.515625 -0.6875 -1.453125 -0.6875q-0.953125 0 -1.5 0.6875q-0.53125 0.671875 -0.53125 1.8125zm8.012634 -5.96875l0 3.5625l0.015625 0q0.265625 -0.53125 0.828125 -0.8125q0.578125 -0.28125 1.375 -0.28125q1.484375 0 2.328125 1.015625q0.84375 1.015625 0.84375 2.609375q0 1.59375 -0.84375 2.59375q-0.84375 0.984375 -2.296875 0.984375q-0.640625 0 -1.265625 -0.265625q-0.609375 -0.265625 -0.96875 -0.8125l-0.015625 0l0 0.921875l-1.140625 0l0 -9.515625l1.140625 0zm-0.046875 6.0625q0 1.203125 0.578125 1.90625q0.578125 0.703125 1.59375 0.703125q0.984375 0 1.515625 -0.703125q0.546875 -0.703125 0.546875 -1.953125q0 -1.109375 -0.578125 -1.828125q-0.5625 -0.71875 -1.5625 -0.71875q-1.0 0 -1.546875 0.734375q-0.546875 0.71875 -0.546875 1.859375zm9.494308 -6.296875q-0.890625 1.40625 -1.328125 2.90625q-0.421875 1.484375 -0.421875 3.25q0 1.78125 0.421875 3.28125q0.4375 1.5 1.328125 2.953125l-0.859375 0q-1.140625 -1.78125 -1.625 -3.25q-0.46875 -1.484375 -0.46875 -2.984375q0 -1.5625 0.53125 -3.171875q0.53125 -1.609375 1.5625 -2.984375l0.859375 0zm3.574173 0.296875q0.796875 0 1.375 0.265625q0.578125 0.25 0.984375 0.78125q0.796875 1.015625 0.796875 3.765625q0 1.375 -0.203125 2.3125q-0.1875 0.921875 -0.59375 1.453125q-0.390625 0.5 -0.984375 0.765625q-0.578125 0.265625 -1.375 0.265625q-1.578125 0 -2.359375 -1.046875q-0.78125 -1.0625 -0.78125 -3.75q0 -2.71875 0.78125 -3.75q0.796875 -1.0625 2.359375 -1.0625zm-1.953125 4.796875q0 1.140625 0.125 1.890625q0.140625 0.734375 0.375 1.140625q0.5 0.78125 1.453125 0.78125q1.046875 0 1.515625 -0.90625q0.21875 -0.453125 0.328125 -1.15625q0.109375 -0.71875 0.109375 -1.703125q0 -0.34375 -0.015625 -0.75q0 -0.40625 -0.0625 -0.828125q-0.046875 -0.421875 -0.171875 -0.828125q-0.109375 -0.40625 -0.3125 -0.71875q-0.21875 -0.3125 -0.5625 -0.515625q-0.328125 -0.203125 -0.84375 -0.203125q-0.453125 0 -0.8125 0.203125q-0.34375 0.1875 -0.609375 0.578125q-0.515625 0.765625 -0.515625 3.015625zm8.240608 3.171875l0 1.421875q0 0.734375 -0.359375 1.265625q-0.359375 0.53125 -1.09375 0.75l0 -0.65625q0.34375 -0.125 0.546875 -0.453125q0.21875 -0.328125 0.21875 -0.765625l0 -0.078125l-0.78125 0l0 -1.484375l1.46875 0zm5.8748627 -7.96875l0 9.453125l-1.140625 0l0 -6.765625l-2.453125 0l0 -0.90625l0.046875 0q1.1875 0 1.84375 -0.421875q0.65625 -0.4375 0.828125 -1.359375l0.875 0zm9.443726 0.171875l0 0.96875q-1.453125 1.453125 -2.46875 3.765625q-1.0 2.296875 -1.15625 4.546875l-1.265625 0q0.15625 -2.203125 1.09375 -4.3125q0.953125 -2.109375 2.640625 -3.90625l-4.96875 0l0 -1.0625l6.125 0zm6.8968506 0l0 0.984375l-3.8125 0l-0.5 2.71875l0.015625 0.03125q0.296875 -0.328125 0.75 -0.5q0.453125 -0.171875 1.015625 -0.171875q1.375 0 2.203125 0.859375q0.84375 0.859375 0.84375 2.359375q0 1.359375 -0.921875 2.265625q-0.90625 0.890625 -2.375 0.890625q-1.265625 0 -2.125 -0.71875q-0.859375 -0.734375 -0.890625 -1.96875l0 -0.015625l1.125 0q0.0625 0.75 0.609375 1.234375q0.5625 0.46875 1.375 0.46875q0.875 0 1.4375 -0.59375q0.5625 -0.59375 0.5625 -1.640625q0 -0.96875 -0.609375 -1.546875q-0.609375 -0.59375 -1.515625 -0.59375q-0.5 0 -0.953125 0.21875q-0.4375 0.21875 -0.8125 0.671875l-0.96875 -0.0625l0.875 -4.890625l4.671875 0zm3.7249756 7.796875l0 1.421875q0 0.734375 -0.359375 1.265625q-0.359375 0.53125 -1.09375 0.75l0 -0.65625q0.34375 -0.125 0.546875 -0.453125q0.21875 -0.328125 0.21875 -0.765625l0 -0.078125l-0.78125 0l0 -1.484375l1.46875 0zm4.7498627 -7.96875q1.3125 0 2.140625 0.75q0.828125 0.734375 0.828125 1.96875q0 0.984375 -0.546875 1.78125q-0.546875 0.78125 -2.328125 1.796875q-1.078125 0.625 -1.53125 1.125q-0.453125 0.484375 -0.546875 1.03125l4.84375 0l0 1.0l-6.171875 0q0.109375 -1.171875 0.609375 -2.0625q0.515625 -0.890625 1.921875 -1.71875q1.640625 -1.015625 2.078125 -1.578125q0.453125 -0.578125 0.453125 -1.375q0 -0.75 -0.515625 -1.234375q-0.515625 -0.484375 -1.296875 -0.484375q-0.859375 0 -1.359375 0.640625q-0.484375 0.640625 -0.484375 1.609375l0 0.09375l-1.140625 0l0 -0.234375q0 -1.40625 0.828125 -2.25q0.84375 -0.859375 2.21875 -0.859375zm7.3031006 0q1.359375 0 2.109375 0.671875q0.765625 0.671875 0.765625 1.859375q0 0.5625 -0.34375 1.078125q-0.328125 0.5 -0.96875 0.8125l0 0.015625q0.84375 0.1875 1.265625 0.796875q0.4375 0.59375 0.4375 1.5q0 1.3125 -0.90625 2.09375q-0.890625 0.78125 -2.328125 0.78125q-1.421875 0 -2.296875 -0.78125q-0.859375 -0.796875 -0.859375 -2.25l0 -0.046875l1.140625 0q0.03125 1.015625 0.5625 1.546875q0.546875 0.53125 1.453125 0.53125q0.875 0 1.453125 -0.515625q0.59375 -0.515625 0.59375 -1.3125q0 -0.828125 -0.5625 -1.3125q-0.546875 -0.5 -1.5 -0.5q-0.140625 0 -0.3125 0.015625q-0.15625 0.015625 -0.328125 0.03125l0 -0.953125q0.15625 0.015625 0.421875 0.015625q0.65625 0 1.046875 -0.21875q0.390625 -0.21875 0.609375 -0.546875q0.21875 -0.328125 0.21875 -0.796875q0 -0.703125 -0.453125 -1.109375q-0.453125 -0.40625 -1.21875 -0.40625q-0.828125 0 -1.296875 0.546875q-0.46875 0.546875 -0.5 1.515625l-1.125 0q0.0625 -1.484375 0.828125 -2.265625q0.765625 -0.796875 2.09375 -0.796875zm7.5999756 0q0.796875 0 1.375 0.265625q0.578125 0.25 0.984375 0.78125q0.796875 1.015625 0.796875 3.765625q0 1.375 -0.203125 2.3125q-0.1875 0.921875 -0.59375 1.453125q-0.390625 0.5 -0.984375 0.765625q-0.578125 0.265625 -1.375 0.265625q-1.578125 0 -2.359375 -1.046875q-0.78125 -1.0625 -0.78125 -3.75q0 -2.71875 0.78125 -3.75q0.796875 -1.0625 2.359375 -1.0625zm-1.953125 4.796875q0 1.140625 0.125 1.890625q0.140625 0.734375 0.375 1.140625q0.5 0.78125 1.453125 0.78125q1.046875 0 1.515625 -0.90625q0.21875 -0.453125 0.328125 -1.15625q0.109375 -0.71875 0.109375 -1.703125q0 -0.34375 -0.015625 -0.75q0 -0.40625 -0.0625 -0.828125q-0.046875 -0.421875 -0.171875 -0.828125q-0.109375 -0.40625 -0.3125 -0.71875q-0.21875 -0.3125 -0.5625 -0.515625q-0.328125 -0.203125 -0.84375 -0.203125q-0.453125 0 -0.8125 0.203125q-0.34375 0.1875 -0.609375 0.578125q-0.515625 0.765625 -0.515625 3.015625zm6.3968506 -5.09375q1.0625 1.640625 1.578125 3.140625q0.515625 1.5 0.515625 3.109375q0 1.609375 -0.546875 3.203125q-0.53125 1.578125 -1.546875 2.9375l-0.859375 0q0.890625 -1.40625 1.3125 -2.890625q0.4375 -1.5 0.4375 -3.25q0 -1.78125 -0.4375 -3.28125q-0.421875 -1.515625 -1.3125 -2.96875l0.859375 0zm10.933411 5.515625l0 1.0625l-3.859375 0l0 -1.0625l3.859375 0zm9.4522705 -5.515625q1.578125 0 2.640625 0.828125q1.0625 0.8125 1.28125 2.265625l-1.265625 0q-0.21875 -0.96875 -0.921875 -1.484375q-0.703125 -0.53125 -1.75 -0.53125q-1.515625 0 -2.375 1.0625q-0.84375 1.0625 -0.84375 2.78125q0 1.828125 0.828125 2.90625q0.84375 1.078125 2.40625 1.078125q1.15625 0 1.90625 -0.734375q0.75 -0.734375 0.84375 -2.0l1.265625 0q-0.203125 1.84375 -1.28125 2.828125q-1.078125 0.984375 -2.84375 0.984375q-2.046875 0 -3.21875 -1.359375q-1.171875 -1.359375 -1.171875 -3.609375q0 -2.21875 1.203125 -3.609375q1.21875 -1.40625 3.296875 -1.40625zm7.3439026 0.234375l3.0 8.0l3.015625 -8.0l1.734375 0l0 9.515625l-1.203125 0l0 -7.921875l-0.03125 0l-2.96875 7.921875l-1.078125 0l-2.96875 -7.921875l-0.03125 0l0 7.921875l-1.203125 0l0 -9.515625l1.734375 0zm10.344421 0l2.859375 4.53125l2.78125 -4.53125l1.4375 0l-3.640625 5.625l0 3.890625l-1.265625 0l0 -3.890625l-3.671875 -5.625l1.5 0zm9.401581 0l0 4.75l4.828125 -4.75l1.640625 0l-4.015625 3.84375l4.171875 5.671875l-1.59375 0l-3.4375 -4.8125l-1.59375 1.484375l0 3.328125l-1.25 0l0 -9.515625l1.25 0zm13.873993 -0.234375q-0.890625 1.40625 -1.328125 2.90625q-0.421875 1.484375 -0.421875 3.25q0 1.78125 0.421875 3.28125q0.4375 1.5 1.328125 2.953125l-0.859375 0q-1.140625 -1.78125 -1.625 -3.25q-0.46875 -1.484375 -0.46875 -2.984375q0 -1.5625 0.53125 -3.171875q0.53125 -1.609375 1.5625 -2.984375l0.859375 0zm4.621048 0.296875l0 9.453125l-1.140625 0l0 -6.765625l-2.453125 0l0 -0.90625l0.046875 0q1.1875 0 1.84375 -0.421875q0.65625 -0.4375 0.828125 -1.359375l0.875 0zm6.3656006 0q0.796875 0 1.375 0.265625q0.578125 0.25 0.984375 0.78125q0.796875 1.015625 0.796875 3.765625q0 1.375 -0.203125 2.3125q-0.1875 0.921875 -0.59375 1.453125q-0.390625 0.5 -0.984375 0.765625q-0.578125 0.265625 -1.375 0.265625q-1.578125 0 -2.359375 -1.046875q-0.78125 -1.0625 -0.78125 -3.75q0 -2.71875 0.78125 -3.75q0.796875 -1.0625 2.359375 -1.0625zm-1.953125 4.796875q0 1.140625 0.125 1.890625q0.140625 0.734375 0.375 1.140625q0.5 0.78125 1.453125 0.78125q1.046875 0 1.515625 -0.90625q0.21875 -0.453125 0.328125 -1.15625q0.109375 -0.71875 0.109375 -1.703125q0 -0.34375 -0.015625 -0.75q0 -0.40625 -0.0625 -0.828125q-0.046875 -0.421875 -0.171875 -0.828125q-0.109375 -0.40625 -0.3125 -0.71875q-0.21875 -0.3125 -0.5625 -0.515625q-0.328125 -0.203125 -0.84375 -0.203125q-0.453125 0 -0.8125 0.203125q-0.34375 0.1875 -0.609375 0.578125q-0.515625 0.765625 -0.515625 3.015625zm9.365601 -4.796875q0.796875 0 1.375 0.265625q0.578125 0.25 0.984375 0.78125q0.796875 1.015625 0.796875 3.765625q0 1.375 -0.203125 2.3125q-0.1875 0.921875 -0.59375 1.453125q-0.390625 0.5 -0.984375 0.765625q-0.578125 0.265625 -1.375 0.265625q-1.578125 0 -2.359375 -1.046875q-0.78125 -1.0625 -0.78125 -3.75q0 -2.71875 0.78125 -3.75q0.796875 -1.0625 2.359375 -1.0625zm-1.953125 4.796875q0 1.140625 0.125 1.890625q0.140625 0.734375 0.375 1.140625q0.5 0.78125 1.453125 0.78125q1.046875 0 1.515625 -0.90625q0.21875 -0.453125 0.328125 -1.15625q0.109375 -0.71875 0.109375 -1.703125q0 -0.34375 -0.015625 -0.75q0 -0.40625 -0.0625 -0.828125q-0.046875 -0.421875 -0.171875 -0.828125q-0.109375 -0.40625 -0.3125 -0.71875q-0.21875 -0.3125 -0.5625 -0.515625q-0.328125 -0.203125 -0.84375 -0.203125q-0.453125 0 -0.8125 0.203125q-0.34375 0.1875 -0.609375 0.578125q-0.515625 0.765625 -0.515625 3.015625zm9.365601 -4.796875q0.796875 0 1.375 0.265625q0.578125 0.25 0.984375 0.78125q0.796875 1.015625 0.796875 3.765625q0 1.375 -0.203125 2.3125q-0.1875 0.921875 -0.59375 1.453125q-0.390625 0.5 -0.984375 0.765625q-0.578125 0.265625 -1.375 0.265625q-1.578125 0 -2.359375 -1.046875q-0.78125 -1.0625 -0.78125 -3.75q0 -2.71875 0.78125 -3.75q0.796875 -1.0625 2.359375 -1.0625zm-1.953125 4.796875q0 1.140625 0.125 1.890625q0.140625 0.734375 0.375 1.140625q0.5 0.78125 1.453125 0.78125q1.046875 0 1.515625 -0.90625q0.21875 -0.453125 0.328125 -1.15625q0.109375 -0.71875 0.109375 -1.703125q0 -0.34375 -0.015625 -0.75q0 -0.40625 -0.0625 -0.828125q-0.046875 -0.421875 -0.171875 -0.828125q-0.109375 -0.40625 -0.3125 -0.71875q-0.21875 -0.3125 -0.5625 -0.515625q-0.328125 -0.203125 -0.84375 -0.203125q-0.453125 0 -0.8125 0.203125q-0.34375 0.1875 -0.609375 0.578125q-0.515625 0.765625 -0.515625 3.015625zm10.334351 -5.09375l-3.9375 9.984375l-0.96875 0l3.9375 -9.984375l0.96875 0zm3.3914795 0.296875q1.3125 0 2.140625 0.75q0.828125 0.734375 0.828125 1.96875q0 0.984375 -0.546875 1.78125q-0.546875 0.78125 -2.328125 1.796875q-1.078125 0.625 -1.53125 1.125q-0.453125 0.484375 -0.546875 1.03125l4.84375 0l0 1.0l-6.171875 0q0.109375 -1.171875 0.609375 -2.0625q0.515625 -0.890625 1.921875 -1.71875q1.640625 -1.015625 2.078125 -1.578125q0.453125 -0.578125 0.453125 -1.375q0 -0.75 -0.515625 -1.234375q-0.515625 -0.484375 -1.296875 -0.484375q-0.859375 0 -1.359375 0.640625q-0.484375 0.640625 -0.484375 1.609375l0 0.09375l-1.140625 0l0 -0.234375q0 -1.40625 0.828125 -2.25q0.84375 -0.859375 2.21875 -0.859375zm7.3031006 0q1.359375 0 2.109375 0.671875q0.765625 0.671875 0.765625 1.859375q0 0.5625 -0.34375 1.078125q-0.328125 0.5 -0.96875 0.8125l0 0.015625q0.84375 0.1875 1.265625 0.796875q0.4375 0.59375 0.4375 1.5q0 1.3125 -0.90625 2.09375q-0.890625 0.78125 -2.328125 0.78125q-1.421875 0 -2.296875 -0.78125q-0.859375 -0.796875 -0.859375 -2.25l0 -0.046875l1.140625 0q0.03125 1.015625 0.5625 1.546875q0.546875 0.53125 1.453125 0.53125q0.875 0 1.453125 -0.515625q0.59375 -0.515625 0.59375 -1.3125q0 -0.828125 -0.5625 -1.3125q-0.546875 -0.5 -1.5 -0.5q-0.140625 0 -0.3125 0.015625q-0.15625 0.015625 -0.328125 0.03125l0 -0.953125q0.15625 0.015625 0.421875 0.015625q0.65625 0 1.046875 -0.21875q0.390625 -0.21875 0.609375 -0.546875q0.21875 -0.328125 0.21875 -0.796875q0 -0.703125 -0.453125 -1.109375q-0.453125 -0.40625 -1.21875 -0.40625q-0.828125 0 -1.296875 0.546875q-0.46875 0.546875 -0.5 1.515625l-1.125 0q0.0625 -1.484375 0.828125 -2.265625q0.765625 -0.796875 2.09375 -0.796875zm7.4593506 0q1.640625 0 2.4375 1.125q0.796875 1.125 0.796875 3.40625q0 2.609375 -0.828125 3.84375q-0.8125 1.234375 -2.453125 1.234375q-1.21875 0 -1.984375 -0.609375q-0.75 -0.625 -0.875 -1.828125l1.125 0q0.09375 0.6875 0.5625 1.0625q0.484375 0.375 1.171875 0.375q1.046875 0 1.5625 -0.890625q0.515625 -0.90625 0.578125 -2.75l-0.03125 -0.03125q-0.328125 0.609375 -0.90625 0.953125q-0.578125 0.34375 -1.296875 0.34375q-1.375 0 -2.171875 -0.84375q-0.796875 -0.84375 -0.796875 -2.3125q0 -1.34375 0.875 -2.203125q0.875 -0.875 2.234375 -0.875zm-1.90625 3.234375q0 0.8125 0.546875 1.421875q0.546875 0.59375 1.3125 0.59375q0.84375 0 1.390625 -0.609375q0.546875 -0.609375 0.546875 -1.484375q0 -0.90625 -0.53125 -1.53125q-0.515625 -0.625 -1.421875 -0.625q-0.875 0 -1.359375 0.609375q-0.484375 0.59375 -0.484375 1.625zm10.428101 -3.53125l-3.9375 9.984375l-0.96875 0l3.9375 -9.984375l0.96875 0zm3.4696045 0.296875q0.796875 0 1.375 0.265625q0.578125 0.25 0.984375 0.78125q0.796875 1.015625 0.796875 3.765625q0 1.375 -0.203125 2.3125q-0.1875 0.921875 -0.59375 1.453125q-0.390625 0.5 -0.984375 0.765625q-0.578125 0.265625 -1.375 0.265625q-1.578125 0 -2.359375 -1.046875q-0.78125 -1.0625 -0.78125 -3.75q0 -2.71875 0.78125 -3.75q0.796875 -1.0625 2.359375 -1.0625zm-1.953125 4.796875q0 1.140625 0.125 1.890625q0.140625 0.734375 0.375 1.140625q0.5 0.78125 1.453125 0.78125q1.046875 0 1.515625 -0.90625q0.21875 -0.453125 0.328125 -1.15625q0.109375 -0.71875 0.109375 -1.703125q0 -0.34375 -0.015625 -0.75q0 -0.40625 -0.0625 -0.828125q-0.046875 -0.421875 -0.171875 -0.828125q-0.109375 -0.40625 -0.3125 -0.71875q-0.21875 -0.3125 -0.5625 -0.515625q-0.328125 -0.203125 -0.84375 -0.203125q-0.453125 0 -0.8125 0.203125q-0.34375 0.1875 -0.609375 0.578125q-0.515625 0.765625 -0.515625 3.015625zm10.334351 -5.09375l-3.9375 9.984375l-0.96875 0l3.9375 -9.984375l0.96875 0zm3.3289795 0.296875q1.640625 0 2.4375 1.125q0.796875 1.125 0.796875 3.40625q0 2.609375 -0.828125 3.84375q-0.8125 1.234375 -2.453125 1.234375q-1.21875 0 -1.984375 -0.609375q-0.75 -0.625 -0.875 -1.828125l1.125 0q0.09375 0.6875 0.5625 1.0625q0.484375 0.375 1.171875 0.375q1.046875 0 1.5625 -0.890625q0.515625 -0.90625 0.578125 -2.75l-0.03125 -0.03125q-0.328125 0.609375 -0.90625 0.953125q-0.578125 0.34375 -1.296875 0.34375q-1.375 0 -2.171875 -0.84375q-0.796875 -0.84375 -0.796875 -2.3125q0 -1.34375 0.875 -2.203125q0.875 -0.875 2.234375 -0.875zm-1.90625 3.234375q0 0.8125 0.546875 1.421875q0.546875 0.59375 1.3125 0.59375q0.84375 0 1.390625 -0.609375q0.546875 -0.609375 0.546875 -1.484375q0 -0.90625 -0.53125 -1.53125q-0.515625 -0.625 -1.421875 -0.625q-0.875 0 -1.359375 0.609375q-0.484375 0.59375 -0.484375 1.625zm9.396851 -3.234375q1.34375 0 2.09375 0.65625q0.765625 0.65625 0.765625 1.75q0 0.609375 -0.328125 1.140625q-0.328125 0.53125 -0.96875 0.828125q0.828125 0.25 1.25 0.859375q0.421875 0.59375 0.421875 1.5q0 1.296875 -0.890625 2.09375q-0.875 0.78125 -2.25 0.78125q-1.4375 0 -2.328125 -0.75q-0.875 -0.765625 -0.875 -2.125q0 -0.84375 0.421875 -1.453125q0.4375 -0.625 1.234375 -0.90625q-0.625 -0.265625 -0.984375 -0.796875q-0.34375 -0.546875 -0.34375 -1.171875q0 -1.0625 0.796875 -1.734375q0.8125 -0.671875 1.984375 -0.671875zm-1.578125 2.453125q0 0.6875 0.453125 1.109375q0.453125 0.40625 1.21875 0.40625q0.71875 0 1.140625 -0.40625q0.421875 -0.40625 0.421875 -1.109375q0 -0.6875 -0.421875 -1.0625q-0.421875 -0.390625 -1.171875 -0.390625q-0.734375 0 -1.1875 0.40625q-0.453125 0.40625 -0.453125 1.046875zm-0.328125 4.328125q0 0.828125 0.546875 1.328125q0.5625 0.5 1.453125 0.5q0.84375 0 1.390625 -0.515625q0.546875 -0.515625 0.546875 -1.328125q0 -0.734375 -0.578125 -1.265625q-0.5625 -0.53125 -1.375 -0.53125q-0.84375 0 -1.421875 0.515625q-0.5625 0.5 -0.5625 1.296875zm6.4124756 -7.078125q1.0625 1.640625 1.578125 3.140625q0.515625 1.5 0.515625 3.109375q0 1.609375 -0.546875 3.203125q-0.53125 1.578125 -1.546875 2.9375l-0.859375 0q0.890625 -1.40625 1.3125 -2.890625q0.4375 -1.5 0.4375 -3.25q0 -1.78125 -0.4375 -3.28125q-0.421875 -1.515625 -1.3125 -2.96875l0.859375 0z" fill-rule="nonzero"></path><path fill="#000000" fill-opacity="0.0" d="m20.67979 243.16798l535.2441 0l0 31.559036l-535.2441 0z" fill-rule="evenodd"></path><path fill="#000000" d="m33.257915 255.68672l-0.375 2.7187653l1.640625 0l0.390625 -2.6718903l0.015625 -0.046875l0.90625 0l-0.390625 2.7187653l1.1875 0l0 0.90625l-1.296875 0l-0.28125 2.0l1.21875 0l0 0.90625l-1.359375 0l-0.390625 2.75l-0.90625 0l0.390625 -2.75l-1.65625 0l-0.390625 2.75l-0.921875 0l0.390625 -2.75l-1.296875 0l0 -0.90625l1.421875 0l0.28125 -2.0l-1.359375 0l0 -0.90625l1.484375 0l0.375 -2.6718903l0.015625 -0.046875l0.90625 0zm-0.78125 5.6250153l1.65625 0l0.28125 -2.0l-1.65625 0l-0.28125 2.0zm8.240601 -5.7968903q1.3125 0 2.140625 0.75001526q0.828125 0.734375 0.828125 1.96875q0 0.984375 -0.546875 1.78125q-0.546875 0.78125 -2.328125 1.796875q-1.078125 0.625 -1.53125 1.125q-0.453125 0.484375 -0.546875 1.03125l4.84375 0l0 1.0l-6.171875 0q0.109375 -1.171875 0.609375 -2.0625q0.515625 -0.890625 1.921875 -1.71875q1.640625 -1.015625 2.078125 -1.578125q0.453125 -0.578125 0.453125 -1.375q0 -0.75 -0.515625 -1.234375q-0.515625 -0.484375 -1.296875 -0.484375q-0.859375 0 -1.359375 0.640625q-0.484375 0.640625 -0.484375 1.609375l0 0.09375l-1.140625 0l0 -0.234375q0 -1.40625 0.828125 -2.25q0.84375 -0.85939026 2.21875 -0.85939026zm8.896851 -0.0625q1.75 0 2.375 0.71876526q0.640625 0.703125 0.640625 1.609375q0 0.75 -0.375 1.3125q-0.359375 0.546875 -1.03125 0.828125l0 0.015625q0.875 0.203125 1.34375 0.8125q0.46875 0.609375 0.46875 1.484375q0 1.171875 -0.8125 1.953125q-0.8125 0.78125 -2.03125 0.78125l-4.640625 0l0 -9.51564l4.0625 0zm-0.203125 4.0937653q0.9375 0 1.4375 -0.359375q0.515625 -0.359375 0.515625 -1.15625q0 -0.765625 -0.421875 -1.140625q-0.421875 -0.375 -1.53125 -0.375l-2.609375 0l0 3.03125l2.609375 0zm0.625 4.359375q0.765625 0 1.25 -0.453125q0.484375 -0.46875 0.484375 -1.25q0 -0.8125 -0.546875 -1.203125q-0.546875 -0.390625 -1.578125 -0.390625l-2.84375 0l0 3.296875l3.234375 0zm7.224304 -8.39064q1.3125 0 2.140625 0.75001526q0.828125 0.734375 0.828125 1.96875q0 0.984375 -0.546875 1.78125q-0.546875 0.78125 -2.328125 1.796875q-1.078125 0.625 -1.53125 1.125q-0.453125 0.484375 -0.546875 1.03125l4.84375 0l0 1.0l-6.171875 0q0.109375 -1.171875 0.609375 -2.0625q0.515625 -0.890625 1.921875 -1.71875q1.640625 -1.015625 2.078125 -1.578125q0.453125 -0.578125 0.453125 -1.375q0 -0.75 -0.515625 -1.234375q-0.515625 -0.484375 -1.296875 -0.484375q-0.859375 0 -1.359375 0.640625q-0.484375 0.640625 -0.484375 1.609375l0 0.09375l-1.140625 0l0 -0.234375q0 -1.40625 0.828125 -2.25q0.84375 -0.85939026 2.21875 -0.85939026zm8.896847 -0.0625q1.75 0 2.375 0.71876526q0.640625 0.703125 0.640625 1.609375q0 0.75 -0.375 1.3125q-0.359375 0.546875 -1.03125 0.828125l0 0.015625q0.875 0.203125 1.34375 0.8125q0.46875 0.609375 0.46875 1.484375q0 1.171875 -0.8125 1.953125q-0.8125 0.78125 -2.03125 0.78125l-4.640621 0l0 -9.51564l4.062496 0zm-0.203125 4.0937653q0.9375 0 1.4375 -0.359375q0.515625 -0.359375 0.515625 -1.15625q0 -0.765625 -0.421875 -1.140625q-0.421875 -0.375 -1.53125 -0.375l-2.6093712 0l0 3.03125l2.6093712 0zm0.625 4.359375q0.765625 0 1.25 -0.453125q0.484375 -0.46875 0.484375 -1.25q0 -0.8125 -0.546875 -1.203125q-0.546875 -0.390625 -1.578125 -0.390625l-2.8437462 0l0 3.296875l3.2343712 0zm7.224304 -8.39064q1.3125 0 2.140625 0.75001526q0.828125 0.734375 0.828125 1.96875q0 0.984375 -0.546875 1.78125q-0.546875 0.78125 -2.328125 1.796875q-1.078125 0.625 -1.53125 1.125q-0.453125 0.484375 -0.546875 1.03125l4.84375 0l0 1.0l-6.171875 0q0.109375 -1.171875 0.609375 -2.0625q0.515625 -0.890625 1.921875 -1.71875q1.640625 -1.015625 2.078125 -1.578125q0.453125 -0.578125 0.453125 -1.375q0 -0.75 -0.515625 -1.234375q-0.515625 -0.484375 -1.296875 -0.484375q-0.859375 0 -1.359375 0.640625q-0.484375 0.640625 -0.484375 1.609375l0 0.09375l-1.140625 0l0 -0.234375q0 -1.40625 0.828125 -2.25q0.84375 -0.85939026 2.21875 -0.85939026zm8.896851 -0.0625q1.75 0 2.375 0.71876526q0.640625 0.703125 0.640625 1.609375q0 0.75 -0.375 1.3125q-0.359375 0.546875 -1.03125 0.828125l0 0.015625q0.875 0.203125 1.34375 0.8125q0.46875 0.609375 0.46875 1.484375q0 1.171875 -0.8125 1.953125q-0.8125 0.78125 -2.03125 0.78125l-4.640625 0l0 -9.51564l4.0625 0zm-0.203125 4.0937653q0.9375 0 1.4375 -0.359375q0.515625 -0.359375 0.515625 -1.15625q0 -0.765625 -0.421875 -1.140625q-0.421875 -0.375 -1.53125 -0.375l-2.609375 0l0 3.03125l2.609375 0zm0.625 4.359375q0.765625 0 1.25 -0.453125q0.484375 -0.46875 0.484375 -1.25q0 -0.8125 -0.546875 -1.203125q-0.546875 -0.390625 -1.578125 -0.390625l-2.84375 0l0 3.296875l3.234375 0zm11.817917 -3.171875l0 1.0625l-3.859375 0l0 -1.0625l3.859375 0zm8.6553955 -2.8125q0.046875 0 0.078125 0q0.03125 0 0.078125 0l0 1.203125q-1.28125 0 -1.890625 0.671875q-0.59375 0.671875 -0.59375 2.09375l0 3.078125l-1.140625 0l0 -6.890625l1.0625 0l0 1.453125l0.03125 0q0.390625 -0.828125 0.96875 -1.21875q0.59375 -0.390625 1.40625 -0.390625zm3.8133698 0q0.71875 0 1.25 0.3125q0.53125 0.3125 0.8125 0.828125l0.015625 0l0 -0.984375l1.0625 0l0 6.375q0 1.625 -0.78125 2.46875q-0.78125 0.84375 -2.40625 0.84375q-1.1875 0 -2.0 -0.53125q-0.8125 -0.515625 -0.859375 -1.484375l1.125 0q0.03125 0.515625 0.5625 0.8125q0.546875 0.296875 1.21875 0.296875q1.015625 0 1.546875 -0.671875q0.53125 -0.65625 0.53125 -1.953125l0 -0.4375l-0.03125 0q-0.265625 0.578125 -0.84375 0.921875q-0.578125 0.328125 -1.3125 0.328125q-1.390625 0 -2.234375 -0.953125q-0.828125 -0.96875 -0.828125 -2.53125q0 -1.578125 0.828125 -2.609375q0.84375 -1.03125 2.34375 -1.03125zm-1.984375 3.5q0 1.234375 0.515625 1.9375q0.515625 0.6875 1.4375 0.6875q0.9375 0 1.484375 -0.71875q0.5625 -0.734375 0.5625 -1.9375q0 -1.109375 -0.515625 -1.78125q-0.515625 -0.6875 -1.453125 -0.6875q-0.953125 0 -1.5 0.6875q-0.53125 0.671875 -0.53125 1.8125zm8.012634 -5.9687653l0 3.5625153l0.015625 0q0.265625 -0.53125 0.828125 -0.8125q0.578125 -0.28125 1.375 -0.28125q1.484375 0 2.328125 1.015625q0.84375 1.015625 0.84375 2.609375q0 1.59375 -0.84375 2.59375q-0.84375 0.984375 -2.296875 0.984375q-0.640625 0 -1.265625 -0.265625q-0.609375 -0.265625 -0.96875 -0.8125l-0.015625 0l0 0.921875l-1.140625 0l0 -9.51564l1.140625 0zm-0.046875 6.0625153q0 1.203125 0.578125 1.90625q0.578125 0.703125 1.59375 0.703125q0.984375 0 1.515625 -0.703125q0.546875 -0.703125 0.546875 -1.953125q0 -1.109375 -0.578125 -1.828125q-0.5625 -0.71875 -1.5625 -0.71875q-1.0 0 -1.546875 0.734375q-0.546875 0.71875 -0.546875 1.859375zm9.494308 -6.2968903q-0.890625 1.4062653 -1.328125 2.9062653q-0.421875 1.484375 -0.421875 3.25q0 1.78125 0.421875 3.28125q0.4375 1.5 1.328125 2.953125l-0.859375 0q-1.140625 -1.78125 -1.625 -3.25q-0.46875 -1.484375 -0.46875 -2.984375q0 -1.5625 0.53125 -3.171875q0.53125 -1.609375 1.5625 -2.9843903l0.859375 0zm5.4491806 0.296875l0 6.2343903l1.28125 0l0 1.0l-1.28125 0l0 2.21875l-1.0625076 0l0 -2.21875l-4.140625 0l0 -1.09375l4.296875 -6.1406403l0.9062576 0zm-1.0937576 1.6250153l-3.140625 4.609375l3.171875 0l0 -4.609375l-0.03125 0zm6.443733 -1.6250153q1.359375 0 2.109375 0.67189026q0.765625 0.671875 0.765625 1.859375q0 0.5625 -0.34375 1.078125q-0.328125 0.5 -0.96875 0.8125l0 0.015625q0.84375 0.1875 1.265625 0.796875q0.4375 0.59375 0.4375 1.5q0 1.3125 -0.90625 2.09375q-0.890625 0.78125 -2.328125 0.78125q-1.421875 0 -2.296875 -0.78125q-0.859375 -0.796875 -0.859375 -2.25l0 -0.046875l1.140625 0q0.03125 1.015625 0.5625 1.546875q0.546875 0.53125 1.453125 0.53125q0.875 0 1.453125 -0.515625q0.59375 -0.515625 0.59375 -1.3125q0 -0.828125 -0.5625 -1.3125q-0.546875 -0.5 -1.5 -0.5q-0.140625 0 -0.3125 0.015625q-0.15625 0.015625 -0.328125 0.03125l0 -0.953125q0.15625 0.015625 0.421875 0.015625q0.65625 0 1.046875 -0.21875q0.390625 -0.21875 0.609375 -0.546875q0.21875 -0.328125 0.21875 -0.796875q0 -0.703125 -0.453125 -1.109375q-0.453125 -0.40625 -1.21875 -0.40625q-0.828125 0 -1.296875 0.546875q-0.46875 0.546875 -0.5 1.515625l-1.125 0q0.0625 -1.484375 0.828125 -2.265625q0.765625 -0.79689026 2.09375 -0.79689026zm6.4749756 7.9687653l0 1.421875q0 0.734375 -0.359375 1.265625q-0.359375 0.53125 -1.09375 0.75l0 -0.65625q0.34375 -0.125 0.546875 -0.453125q0.21875 -0.328125 0.21875 -0.765625l0 -0.078125l-0.78125 0l0 -1.484375l1.46875 0zm6.7029877 -7.9687653l0 6.2343903l1.28125 0l0 1.0l-1.28125 0l0 2.21875l-1.0625 0l0 -2.21875l-4.140625 0l0 -1.09375l4.296875 -6.1406403l0.90625 0zm-1.09375 1.6250153l-3.140625 4.609375l3.171875 0l0 -4.609375l-0.03125 0zm6.4437256 -1.6250153q1.359375 0 2.109375 0.67189026q0.765625 0.671875 0.765625 1.859375q0 0.5625 -0.34375 1.078125q-0.328125 0.5 -0.96875 0.8125l0 0.015625q0.84375 0.1875 1.265625 0.796875q0.4375 0.59375 0.4375 1.5q0 1.3125 -0.90625 2.09375q-0.890625 0.78125 -2.328125 0.78125q-1.421875 0 -2.296875 -0.78125q-0.859375 -0.796875 -0.859375 -2.25l0 -0.046875l1.140625 0q0.03125 1.015625 0.5625 1.546875q0.546875 0.53125 1.453125 0.53125q0.875 0 1.453125 -0.515625q0.59375 -0.515625 0.59375 -1.3125q0 -0.828125 -0.5625 -1.3125q-0.546875 -0.5 -1.5 -0.5q-0.140625 0 -0.3125 0.015625q-0.15625 0.015625 -0.328125 0.03125l0 -0.953125q0.15625 0.015625 0.421875 0.015625q0.65625 0 1.046875 -0.21875q0.390625 -0.21875 0.609375 -0.546875q0.21875 -0.328125 0.21875 -0.796875q0 -0.703125 -0.453125 -1.109375q-0.453125 -0.40625 -1.21875 -0.40625q-0.828125 0 -1.296875 0.546875q-0.46875 0.546875 -0.5 1.515625l-1.125 0q0.0625 -1.484375 0.828125 -2.265625q0.765625 -0.79689026 2.09375 -0.79689026zm6.4749756 7.9687653l0 1.421875q0 0.734375 -0.359375 1.265625q-0.359375 0.53125 -1.09375 0.75l0 -0.65625q0.34375 -0.125 0.546875 -0.453125q0.21875 -0.328125 0.21875 -0.765625l0 -0.078125l-0.78125 0l0 -1.484375l1.46875 0zm6.7029877 -7.9687653l0 6.2343903l1.28125 0l0 1.0l-1.28125 0l0 2.21875l-1.0625 0l0 -2.21875l-4.140625 0l0 -1.09375l4.296875 -6.1406403l0.90625 0zm-1.09375 1.6250153l-3.140625 4.609375l3.171875 0l0 -4.609375l-0.03125 0zm6.4437256 -1.6250153q1.359375 0 2.109375 0.67189026q0.765625 0.671875 0.765625 1.859375q0 0.5625 -0.34375 1.078125q-0.328125 0.5 -0.96875 0.8125l0 0.015625q0.84375 0.1875 1.265625 0.796875q0.4375 0.59375 0.4375 1.5q0 1.3125 -0.90625 2.09375q-0.890625 0.78125 -2.328125 0.78125q-1.421875 0 -2.296875 -0.78125q-0.859375 -0.796875 -0.859375 -2.25l0 -0.046875l1.140625 0q0.03125 1.015625 0.5625 1.546875q0.546875 0.53125 1.453125 0.53125q0.875 0 1.453125 -0.515625q0.59375 -0.515625 0.59375 -1.3125q0 -0.828125 -0.5625 -1.3125q-0.546875 -0.5 -1.5 -0.5q-0.140625 0 -0.3125 0.015625q-0.15625 0.015625 -0.328125 0.03125l0 -0.953125q0.15625 0.015625 0.421875 0.015625q0.65625 0 1.046875 -0.21875q0.390625 -0.21875 0.609375 -0.546875q0.21875 -0.328125 0.21875 -0.796875q0 -0.703125 -0.453125 -1.109375q-0.453125 -0.40625 -1.21875 -0.40625q-0.828125 0 -1.296875 0.546875q-0.46875 0.546875 -0.5 1.515625l-1.125 0q0.0625 -1.484375 0.828125 -2.265625q0.765625 -0.79689026 2.09375 -0.79689026zm4.6312256 -0.296875q1.0625 1.6406403 1.578125 3.1406403q0.515625 1.5 0.515625 3.109375q0 1.609375 -0.546875 3.203125q-0.53125 1.578125 -1.546875 2.9375l-0.859375 0q0.890625 -1.40625 1.3125 -2.890625q0.4375 -1.5 0.4375 -3.25q0 -1.78125 -0.4375 -3.28125q-0.421875 -1.515625 -1.3125 -2.9687653l0.859375 0zm10.933411 5.5156403l0 1.0625l-3.859375 0l0 -1.0625l3.859375 0zm9.4522705 -5.5156403q1.578125 0 2.640625 0.82814026q1.0625 0.8125 1.28125 2.265625l-1.265625 0q-0.21875 -0.96875 -0.921875 -1.484375q-0.703125 -0.53125 -1.75 -0.53125q-1.515625 0 -2.375 1.0625q-0.84375 1.0625 -0.84375 2.78125q0 1.828125 0.828125 2.90625q0.84375 1.078125 2.40625 1.078125q1.15625 0 1.90625 -0.734375q0.75 -0.734375 0.84375 -2.0l1.265625 0q-0.203125 1.84375 -1.28125 2.828125q-1.078125 0.984375 -2.84375 0.984375q-2.046875 0 -3.21875 -1.359375q-1.171875 -1.359375 -1.171875 -3.609375q0 -2.21875 1.203125 -3.609375q1.21875 -1.4062653 3.296875 -1.4062653zm7.3439026 0.234375l3.0 8.000015l3.015625 -8.000015l1.734375 0l0 9.51564l-1.203125 0l0 -7.921875l-0.03125 0l-2.96875 7.921875l-1.078125 0l-2.96875 -7.921875l-0.03125 0l0 7.921875l-1.203125 0l0 -9.51564l1.734375 0zm10.344421 0l2.859375 4.5312653l2.78125 -4.5312653l1.4375 0l-3.640625 5.6250153l0 3.890625l-1.265625 0l0 -3.890625l-3.671875 -5.6250153l1.5 0zm9.401581 0l0 4.7500153l4.828125 -4.7500153l1.640625 0l-4.015625 3.8437653l4.171875 5.671875l-1.59375 0l-3.4375 -4.8125l-1.59375 1.484375l0 3.328125l-1.25 0l0 -9.51564l1.25 0zm13.873993 -0.234375q-0.890625 1.4062653 -1.328125 2.9062653q-0.421875 1.484375 -0.421875 3.25q0 1.78125 0.421875 3.28125q0.4375 1.5 1.328125 2.953125l-0.859375 0q-1.140625 -1.78125 -1.625 -3.25q-0.46875 -1.484375 -0.46875 -2.984375q0 -1.5625 0.53125 -3.171875q0.53125 -1.609375 1.5625 -2.9843903l0.859375 0zm3.574173 0.296875q0.796875 0 1.375 0.265625q0.578125 0.25001526 0.984375 0.78126526q0.796875 1.015625 0.796875 3.765625q0 1.375 -0.203125 2.3125q-0.1875 0.921875 -0.59375 1.453125q-0.390625 0.5 -0.984375 0.765625q-0.578125 0.265625 -1.375 0.265625q-1.578125 0 -2.359375 -1.046875q-0.78125 -1.0625 -0.78125 -3.75q0 -2.71875 0.78125 -3.75q0.796875 -1.0625153 2.359375 -1.0625153zm-1.953125 4.7968903q0 1.140625 0.125 1.890625q0.140625 0.734375 0.375 1.140625q0.5 0.78125 1.453125 0.78125q1.046875 0 1.515625 -0.90625q0.21875 -0.453125 0.328125 -1.15625q0.109375 -0.71875 0.109375 -1.703125q0 -0.34375 -0.015625 -0.75q0 -0.40625 -0.0625 -0.828125q-0.046875 -0.421875 -0.171875 -0.828125q-0.109375 -0.40625 -0.3125 -0.71875q-0.21875 -0.3125 -0.5625 -0.515625q-0.328125 -0.203125 -0.84375 -0.203125q-0.453125 0 -0.8125 0.203125q-0.34375 0.1875 -0.609375 0.578125q-0.515625 0.765625 -0.515625 3.015625zm10.334351 -5.0937653l-3.9375 9.98439l-0.96875 0l3.9375 -9.98439l0.96875 0zm3.4696198 0.296875q0.796875 0 1.375 0.265625q0.578125 0.25001526 0.984375 0.78126526q0.796875 1.015625 0.796875 3.765625q0 1.375 -0.203125 2.3125q-0.1875 0.921875 -0.59375 1.453125q-0.390625 0.5 -0.984375 0.765625q-0.578125 0.265625 -1.375 0.265625q-1.578125 0 -2.359375 -1.046875q-0.78125 -1.0625 -0.78125 -3.75q0 -2.71875 0.78125 -3.75q0.796875 -1.0625153 2.359375 -1.0625153zm-1.953125 4.7968903q0 1.140625 0.125 1.890625q0.140625 0.734375 0.375 1.140625q0.5 0.78125 1.453125 0.78125q1.046875 0 1.515625 -0.90625q0.21875 -0.453125 0.328125 -1.15625q0.109375 -0.71875 0.109375 -1.703125q0 -0.34375 -0.015625 -0.75q0 -0.40625 -0.0625 -0.828125q-0.046875 -0.421875 -0.171875 -0.828125q-0.109375 -0.40625 -0.3125 -0.71875q-0.21875 -0.3125 -0.5625 -0.515625q-0.328125 -0.203125 -0.84375 -0.203125q-0.453125 0 -0.8125 0.203125q-0.34375 0.1875 -0.609375 0.578125q-0.515625 0.765625 -0.515625 3.015625zm10.334335 -5.0937653l-3.9375 9.98439l-0.96873474 0l3.9374847 -9.98439l0.96875 0zm3.469635 0.296875q0.796875 0 1.375 0.265625q0.578125 0.25001526 0.984375 0.78126526q0.796875 1.015625 0.796875 3.765625q0 1.375 -0.203125 2.3125q-0.1875 0.921875 -0.59375 1.453125q-0.390625 0.5 -0.984375 0.765625q-0.578125 0.265625 -1.375 0.265625q-1.578125 0 -2.359375 -1.046875q-0.78125 -1.0625 -0.78125 -3.75q0 -2.71875 0.78125 -3.75q0.796875 -1.0625153 2.359375 -1.0625153zm-1.953125 4.7968903q0 1.140625 0.125 1.890625q0.140625 0.734375 0.375 1.140625q0.5 0.78125 1.453125 0.78125q1.046875 0 1.515625 -0.90625q0.21875 -0.453125 0.328125 -1.15625q0.109375 -0.71875 0.109375 -1.703125q0 -0.34375 -0.015625 -0.75q0 -0.40625 -0.0625 -0.828125q-0.046875 -0.421875 -0.171875 -0.828125q-0.109375 -0.40625 -0.3125 -0.71875q-0.21875 -0.3125 -0.5625 -0.515625q-0.328125 -0.203125 -0.84375 -0.203125q-0.453125 0 -0.8125 0.203125q-0.34375 0.1875 -0.609375 0.578125q-0.515625 0.765625 -0.515625 3.015625zm10.334351 -5.0937653l-3.9375 9.98439l-0.96875 0l3.9375 -9.98439l0.96875 0zm3.4071045 0.296875q1.34375 0 2.09375 0.65626526q0.765625 0.65625 0.765625 1.75q0 0.609375 -0.328125 1.140625q-0.328125 0.53125 -0.96875 0.828125q0.828125 0.25 1.25 0.859375q0.421875 0.59375 0.421875 1.5q0 1.296875 -0.890625 2.09375q-0.875 0.78125 -2.25 0.78125q-1.4375 0 -2.328125 -0.75q-0.875 -0.765625 -0.875 -2.125q0 -0.84375 0.421875 -1.453125q0.4375 -0.625 1.234375 -0.90625q-0.625 -0.265625 -0.984375 -0.796875q-0.34375 -0.546875 -0.34375 -1.171875q0 -1.0625 0.796875 -1.734375q0.8125 -0.67189026 1.984375 -0.67189026zm-1.578125 2.4531403q0 0.6875 0.453125 1.109375q0.453125 0.40625 1.21875 0.40625q0.71875 0 1.140625 -0.40625q0.421875 -0.40625 0.421875 -1.109375q0 -0.6875 -0.421875 -1.0625q-0.421875 -0.390625 -1.171875 -0.390625q-0.734375 0 -1.1875 0.40625q-0.453125 0.40625 -0.453125 1.046875zm-0.328125 4.328125q0 0.828125 0.546875 1.328125q0.5625 0.5 1.453125 0.5q0.84375 0 1.390625 -0.515625q0.546875 -0.515625 0.546875 -1.328125q0 -0.734375 -0.578125 -1.265625q-0.5625 -0.53125 -1.375 -0.53125q-0.84375 0 -1.421875 0.515625q-0.5625 0.5 -0.5625 1.296875zm9.193726 -6.7812653q1.359375 0 2.109375 0.67189026q0.765625 0.671875 0.765625 1.859375q0 0.5625 -0.34375 1.078125q-0.328125 0.5 -0.96875 0.8125l0 0.015625q0.84375 0.1875 1.265625 0.796875q0.4375 0.59375 0.4375 1.5q0 1.3125 -0.90625 2.09375q-0.890625 0.78125 -2.328125 0.78125q-1.421875 0 -2.296875 -0.78125q-0.859375 -0.796875 -0.859375 -2.25l0 -0.046875l1.140625 0q0.03125 1.015625 0.5625 1.546875q0.546875 0.53125 1.453125 0.53125q0.875 0 1.453125 -0.515625q0.59375 -0.515625 0.59375 -1.3125q0 -0.828125 -0.5625 -1.3125q-0.546875 -0.5 -1.5 -0.5q-0.140625 0 -0.3125 0.015625q-0.15625 0.015625 -0.328125 0.03125l0 -0.953125q0.15625 0.015625 0.421875 0.015625q0.65625 0 1.046875 -0.21875q0.390625 -0.21875 0.609375 -0.546875q0.21875 -0.328125 0.21875 -0.796875q0 -0.703125 -0.453125 -1.109375q-0.453125 -0.40625 -1.21875 -0.40625q-0.828125 0 -1.296875 0.546875q-0.46875 0.546875 -0.5 1.515625l-1.125 0q0.0625 -1.484375 0.828125 -2.265625q0.765625 -0.79689026 2.09375 -0.79689026zm8.646851 0l0 9.45314l-1.140625 0l0 -6.765625l-2.453125 0l0 -0.90625l0.046875 0q1.1875 0 1.84375 -0.421875q0.65625 -0.4375 0.828125 -1.3593903l0.875 0zm3.3968506 -0.296875q1.0625 1.6406403 1.578125 3.1406403q0.515625 1.5 0.515625 3.109375q0 1.609375 -0.546875 3.203125q-0.53125 1.578125 -1.546875 2.9375l-0.859375 0q0.890625 -1.40625 1.3125 -2.890625q0.4375 -1.5 0.4375 -3.25q0 -1.78125 -0.4375 -3.28125q-0.421875 -1.515625 -1.3125 -2.9687653l0.859375 0z" fill-rule="nonzero"></path><path fill="#000000" fill-opacity="0.0" d="m16.412073 16.120735l535.24414 0l0 31.559055l-535.24414 0z" fill-rule="evenodd"></path><path fill="#000000" d="m32.693325 28.40511l0 1.0625l-4.984377 0l0 3.03125l4.375002 0l0 1.0625l-4.375002 0l0 4.359375l-1.25 0l0 -9.515625l6.234377 0zm4.2001343 2.46875q1.5625 0 2.453125 1.015625q0.890625 1.0 0.890625 2.59375q0 1.609375 -0.921875 2.609375q-0.90625 0.984375 -2.421875 0.984375q-1.5 0 -2.421875 -0.96875q-0.921875 -0.984375 -0.921875 -2.625q0 -1.640625 0.90625 -2.625q0.90625 -0.984375 2.4375 -0.984375zm-2.15625 3.609375q0 1.1875 0.609375 1.890625q0.609375 0.703125 1.546875 0.703125q0.921875 0 1.53125 -0.703125q0.609375 -0.71875 0.609375 -1.890625q0 -1.171875 -0.609375 -1.890625q-0.59375 -0.71875 -1.546875 -0.71875q-0.90625 0 -1.53125 0.703125q-0.609375 0.703125 -0.609375 1.90625zm10.168884 -3.609375q1.25 0 1.8125 0.640625q0.5625 0.640625 0.5625 1.8125l0 4.59375l-1.140625 0l0 -4.703125q0 -0.59375 -0.375 -0.96875q-0.375 -0.375 -1.03125 -0.375q-0.953125 0 -1.5 0.59375q-0.53125 0.578125 -0.53125 1.515625l0 3.9375l-1.125 0l0 -6.890625l1.0625 0l0 1.09375l0.03125 0q0.375 -0.640625 0.921875 -0.9375q0.546875 -0.3125 1.3125 -0.3125zm5.6468506 -1.90625l0 2.0625l1.375 0l0 1.0l-1.375 0l0 4.3125q0 0.515625 0.34375 0.546875q0.34375 0.03125 0.71875 0.03125l0.3125 0l0 1.0l-0.9375 0q-0.921875 0 -1.25 -0.328125q-0.3125 -0.328125 -0.3125 -1.109375l0 -4.453125l-1.1875 0l0 -1.0l1.1875 0l0 -2.0625l1.125 0zm6.291336 4.71875l0 1.0625l-3.859375 0l0 -1.0625l3.859375 0zm3.8899078 -5.390625q0.140625 0 0.359375 0.03125q0.234375 0.03125 0.375 0.078125l0 0.984375q-0.125 -0.046875 -0.3125 -0.0625q-0.1875 -0.03125 -0.328125 -0.03125q-0.46875 0 -0.671875 0.203125q-0.1875 0.1875 -0.1875 0.546875l0 0.984375l1.328125 0l0 1.0l-1.328125 0l0 5.890625l-1.125 0l0 -5.890625l-1.171875 0l0 -1.0l1.171875 0l0 -1.078125q0 -0.765625 0.46875 -1.203125q0.484375 -0.453125 1.421875 -0.453125zm4.3968925 2.578125q1.40625 0 1.984375 0.5q0.59375 0.5 0.59375 1.34375q0 3.578125 0 3.96875q0 0.390625 0.359375 0.390625q0.078125 0 0.171875 -0.015625q0.09375 -0.015625 0.171875 -0.046875l0 0.875q-0.15625 0.09375 -0.359375 0.140625q-0.203125 0.046875 -0.4375 0.046875q-0.46875 0 -0.71875 -0.25q-0.25 -0.265625 -0.25 -0.8125q-0.453125 0.53125 -1.0625 0.796875q-0.609375 0.265625 -1.359375 0.265625q-1.0781212 0 -1.6874962 -0.5q-0.59375 -0.5 -0.59375 -1.421875q0 -0.9375 0.59375 -1.46875q0.59375 -0.546875 2.7812462 -0.828125q0.734375 -0.09375 1.0 -0.28125q0.265625 -0.1875 0.265625 -0.5625q0 -0.578125 -0.375 -0.859375q-0.359375 -0.28125 -1.15625 -0.28125q-0.84375 0 -1.2656212 0.3125q-0.421875 0.3125 -0.453125 0.984375l-1.125 0q0.046875 -1.140625 0.796875 -1.71875q0.765625 -0.578125 2.1249962 -0.578125zm-1.9999962 5.1875q0 0.484375 0.34375 0.75q0.359375 0.265625 0.9999962 0.265625q0.953125 0 1.515625 -0.46875q0.578125 -0.484375 0.578125 -1.0625l0 -1.1875q-0.28125 0.203125 -0.734375 0.28125q-0.453125 0.0625 -1.21875 0.171875q-0.7499962 0.109375 -1.1249962 0.40625q-0.359375 0.296875 -0.359375 0.84375zm9.658657 -5.1875q0.75 0 1.234375 0.3125q0.484375 0.296875 0.65625 0.859375q0.359375 -0.5625 0.921875 -0.859375q0.5625 -0.3125 1.25 -0.3125q1.15625 0 1.71875 0.53125q0.5625 0.515625 0.5625 1.421875l0 5.09375l-1.125 0l0 -4.5625q0 -0.75 -0.328125 -1.109375q-0.3125 -0.375 -1.015625 -0.375q-0.84375 0 -1.328125 0.5q-0.46875 0.484375 -0.46875 1.21875l0 4.328125l-1.140625 0l0 -4.5625q0 -0.75 -0.3125 -1.109375q-0.3125 -0.375 -0.96875 -0.375q-0.546875 0 -0.96875 0.265625q-0.40625 0.25 -0.640625 0.703125q-0.234375 0.453125 -0.234375 0.765625l0 4.3125l-1.125 0l0 -6.890625l1.0625 0l0 1.015625l0.03125 0q0.390625 -0.59375 0.9375 -0.875q0.546875 -0.296875 1.28125 -0.296875zm9.244263 -2.46875l0 1.390625l-1.125 0l0 -1.390625l1.125 0zm0 2.625l0 6.890625l-1.125 0l0 -6.890625l1.125 0zm2.96109 -2.625l0 9.515625l-1.125 0l0 -9.515625l1.125 0zm2.30484 2.625l2.0 5.640625l0.03125 0l1.9375 -5.640625l1.203125 0l-2.9375 7.625q-0.453125 1.1875 -0.890625 1.609375q-0.421875 0.421875 -1.171875 0.421875q-0.203125 0 -0.40625 -0.03125q-0.1875 -0.03125 -0.375 -0.09375l0 -1.046875q0.15625 0.0625 0.3125 0.109375q0.171875 0.046875 0.34375 0.046875q0.6875 0 0.953125 -0.6875q0.28125 -0.6875 0.453125 -1.09375l-2.734375 -6.859375l1.28125 0zm7.8515625 0l0 1.484375l-1.46875 0l0 -1.484375l1.46875 0zm0 5.40625l0 1.484375l-1.46875 0l0 -1.484375l1.46875 0z" fill-rule="nonzero"></path><path fill="#222222" d="m102.33872 28.40511l0 3.4375l-0.90625 0l0 -3.4375l0.90625 0zm1.859375 0l0 3.4375l-0.90625 0l0 -3.4375l0.90625 0zm3.7529907 0l0 4.09375l5.015625 0l0 -4.09375l1.265625 0l0 9.515625l-1.265625 0l0 -4.359375l-5.015625 0l0 4.359375l-1.25 0l0 -9.515625l1.25 0zm11.047028 2.46875q1.484375 0 2.296875 1.078125q0.828125 1.0625 0.828125 2.734375l0 0.125l-5.171875 0l0 0.09375q0 0.984375 0.578125 1.578125q0.578125 0.59375 1.578125 0.59375q0.75 0 1.1875 -0.34375q0.453125 -0.359375 0.59375 -1.0l1.125 0q-0.234375 1.140625 -1.015625 1.75q-0.765625 0.59375 -1.9375 0.59375q-1.078125 0 -1.828125 -0.484375q-0.75 -0.484375 -1.109375 -1.359375q-0.359375 -0.890625 -0.359375 -1.796875q0 -1.53125 0.90625 -2.546875q0.921875 -1.015625 2.328125 -1.015625zm-2.046875 2.9375l3.96875 0q-0.0625 -0.84375 -0.625 -1.390625q-0.546875 -0.546875 -1.375 -0.546875q-0.78125 0 -1.34375 0.53125q-0.546875 0.515625 -0.625 1.40625zm7.533661 -5.40625l0 9.515625l-1.125 0l0 -9.515625l1.125 0zm2.36734 2.625l1.9375076 5.75l0.015625 0l1.890625 -5.75l1.171875 0l-2.515625 6.890625l-1.203125 0l-2.5625076 -6.890625l1.265625 0zm8.929695 -0.15625q1.484375 0 2.296875 1.078125q0.828125 1.0625 0.828125 2.734375l0 0.125l-5.171875 0l0 0.09375q0 0.984375 0.578125 1.578125q0.578125 0.59375 1.578125 0.59375q0.75 0 1.1875 -0.34375q0.453125 -0.359375 0.59375 -1.0l1.125 0q-0.234375 1.140625 -1.015625 1.75q-0.765625 0.59375 -1.9375 0.59375q-1.078125 0 -1.828125 -0.484375q-0.75 -0.484375 -1.109375 -1.359375q-0.359375 -0.890625 -0.359375 -1.796875q0 -1.53125 0.90625 -2.546875q0.921875 -1.015625 2.328125 -1.015625zm-2.046875 2.9375l3.96875 0q-0.0625 -0.84375 -0.625 -1.390625q-0.546875 -0.546875 -1.375 -0.546875q-0.78125 0 -1.34375 0.53125q-0.546875 0.515625 -0.625 1.40625zm7.908661 -4.84375l0 2.0625l1.375 0l0 1.0l-1.375 0l0 4.3125q0 0.515625 0.34375 0.546875q0.34375 0.03125 0.71875 0.03125l0.3125 0l0 1.0l-0.9375 0q-0.921875 0 -1.25 -0.328125q-0.3125 -0.328125 -0.3125 -1.109375l0 -4.453125l-1.1875 0l0 -1.0l1.1875 0l0 -2.0625l1.125 0zm3.822586 -0.5625l0 1.390625l-1.125 0l0 -1.390625l1.125 0zm0 2.625l0 6.890625l-1.125 0l0 -6.890625l1.125 0zm4.64859 -0.15625q1.25 0 2.03125 0.609375q0.796875 0.59375 0.9375 1.765625l-1.171875 0q-0.140625 -0.671875 -0.59375 -1.015625q-0.4375 -0.359375 -1.109375 -0.359375q-1.0625 0 -1.609375 0.703125q-0.546875 0.703125 -0.546875 1.984375q0 1.140625 0.546875 1.828125q0.546875 0.6875 1.46875 0.6875q0.828125 0 1.296875 -0.4375q0.484375 -0.453125 0.59375 -1.234375l1.15625 0q-0.1875 1.28125 -0.96875 1.984375q-0.78125 0.6875 -2.0625 0.6875q-1.5 0 -2.359375 -0.9375q-0.859375 -0.953125 -0.859375 -2.578125q0 -1.6875 0.859375 -2.6875q0.875 -1.0 2.390625 -1.0zm7.096161 0q1.40625 0 1.984375 0.5q0.59375 0.5 0.59375 1.34375q0 3.578125 0 3.96875q0 0.390625 0.359375 0.390625q0.078125 0 0.171875 -0.015625q0.09375 -0.015625 0.171875 -0.046875l0 0.875q-0.15625 0.09375 -0.359375 0.140625q-0.203125 0.046875 -0.4375 0.046875q-0.46875 0 -0.71875 -0.25q-0.25 -0.265625 -0.25 -0.8125q-0.453125 0.53125 -1.0625 0.796875q-0.609375 0.265625 -1.359375 0.265625q-1.078125 0 -1.6875 -0.5q-0.59375 -0.5 -0.59375 -1.421875q0 -0.9375 0.59375 -1.46875q0.59375 -0.546875 2.78125 -0.828125q0.734375 -0.09375 1.0 -0.28125q0.265625 -0.1875 0.265625 -0.5625q0 -0.578125 -0.375 -0.859375q-0.359375 -0.28125 -1.15625 -0.28125q-0.84375 0 -1.265625 0.3125q-0.421875 0.3125 -0.453125 0.984375l-1.125 0q0.046875 -1.140625 0.796875 -1.71875q0.765625 -0.578125 2.125 -0.578125zm-2.0 5.1875q0 0.484375 0.34375 0.75q0.359375 0.265625 1.0 0.265625q0.953125 0 1.515625 -0.46875q0.578125 -0.484375 0.578125 -1.0625l0 -1.1875q-0.28125 0.203125 -0.734375 0.28125q-0.453125 0.0625 -1.21875 0.171875q-0.75 0.109375 -1.125 0.40625q-0.359375 0.296875 -0.359375 0.84375zm11.564774 -7.65625l5.015625 7.71875l0.015625 0l0 -7.71875l1.203125 0l0 9.515625l-1.390625 0l-4.96875 -7.640625l-0.03125 0l0 7.640625l-1.1875 0l0 -9.515625l1.34375 0zm10.968903 2.46875q1.484375 0 2.296875 1.078125q0.828125 1.0625 0.828125 2.734375l0 0.125l-5.171875 0l0 0.09375q0 0.984375 0.578125 1.578125q0.578125 0.59375 1.578125 0.59375q0.75 0 1.1875 -0.34375q0.453125 -0.359375 0.59375 -1.0l1.125 0q-0.234375 1.140625 -1.015625 1.75q-0.765625 0.59375 -1.9375 0.59375q-1.078125 0 -1.828125 -0.484375q-0.75 -0.484375 -1.109375 -1.359375q-0.359375 -0.890625 -0.359375 -1.796875q0 -1.53125 0.90625 -2.546875q0.921875 -1.015625 2.328125 -1.015625zm-2.046875 2.9375l3.96875 0q-0.0625 -0.84375 -0.625 -1.390625q-0.546875 -0.546875 -1.375 -0.546875q-0.78125 0 -1.34375 0.53125q-0.546875 0.515625 -0.625 1.40625zm7.471161 -2.78125l0 4.703125q0 0.578125 0.375 0.96875q0.375 0.375 1.03125 0.375q0.96875 0 1.5 -0.59375q0.53125 -0.59375 0.53125 -1.515625l0 -3.9375l1.140625 0l0 6.890625l-1.0625 0l0 -1.09375l-0.03125 0q-0.375 0.65625 -0.953125 0.953125q-0.5625 0.296875 -1.296875 0.296875q-1.203125 0 -1.78125 -0.609375q-0.578125 -0.625 -0.578125 -1.84375l0 -4.59375l1.125 0zm9.146851 -0.15625q1.484375 0 2.296875 1.078125q0.828125 1.0625 0.828125 2.734375l0 0.125l-5.171875 0l0 0.09375q0 0.984375 0.578125 1.578125q0.578125 0.59375 1.578125 0.59375q0.75 0 1.1875 -0.34375q0.453125 -0.359375 0.59375 -1.0l1.125 0q-0.234375 1.140625 -1.015625 1.75q-0.765625 0.59375 -1.9375 0.59375q-1.078125 0 -1.828125 -0.484375q-0.75 -0.484375 -1.109375 -1.359375q-0.359375 -0.890625 -0.359375 -1.796875q0 -1.53125 0.90625 -2.546875q0.921875 -1.015625 2.328125 -1.015625zm-2.046875 2.9375l3.96875 0q-0.0625 -0.84375 -0.625 -1.390625q-0.546875 -0.546875 -1.375 -0.546875q-0.78125 0 -1.34375 0.53125q-0.546875 0.515625 -0.625 1.40625zm7.846161 -5.40625l0 3.4375l-0.90625 0l0 -3.4375l0.90625 0zm1.859375 0l0 3.4375l-0.90625 0l0 -3.4375l0.90625 0zm4.0342407 8.03125l0 1.421875q0 0.734375 -0.359375 1.265625q-0.359375 0.53125 -1.09375 0.75l0 -0.65625q0.34375 -0.125 0.546875 -0.453125q0.21875 -0.328125 0.21875 -0.765625l0 -0.078125l-0.78125 0l0 -1.484375l1.46875 0zm3.4217377 -8.03125l0 4.09375l5.015625 0l0 -4.09375l1.265625 0l0 9.515625l-1.265625 0l0 -4.359375l-5.015625 0l0 4.359375l-1.25 0l0 -9.515625l1.25 0zm11.047028 2.46875q1.484375 0 2.296875 1.078125q0.828125 1.0625 0.828125 2.734375l0 0.125l-5.171875 0l0 0.09375q0 0.984375 0.578125 1.578125q0.578125 0.59375 1.578125 0.59375q0.75 0 1.1875 -0.34375q0.453125 -0.359375 0.59375 -1.0l1.125 0q-0.234375 1.140625 -1.015625 1.75q-0.765625 0.59375 -1.9375 0.59375q-1.078125 0 -1.828125 -0.484375q-0.75 -0.484375 -1.109375 -1.359375q-0.359375 -0.890625 -0.359375 -1.796875q0 -1.53125 0.90625 -2.546875q0.921875 -1.015625 2.328125 -1.015625zm-2.046875 2.9375l3.96875 0q-0.0625 -0.84375 -0.625 -1.390625q-0.546875 -0.546875 -1.375 -0.546875q-0.78125 0 -1.34375 0.53125q-0.546875 0.515625 -0.625 1.40625zm7.533661 -5.40625l0 9.515625l-1.125 0l0 -9.515625l1.125 0zm2.36734 2.625l1.9375 5.75l0.015625 0l1.890625 -5.75l1.171875 0l-2.515625 6.890625l-1.203125 0l-2.5625 -6.890625l1.265625 0zm8.9296875 -0.15625q1.484375 0 2.296875 1.078125q0.828125 1.0625 0.828125 2.734375l0 0.125l-5.171875 0l0 0.09375q0 0.984375 0.578125 1.578125q0.578125 0.59375 1.578125 0.59375q0.75 0 1.1875 -0.34375q0.453125 -0.359375 0.59375 -1.0l1.125 0q-0.234375 1.140625 -1.015625 1.75q-0.765625 0.59375 -1.9375 0.59375q-1.078125 0 -1.828125 -0.484375q-0.75 -0.484375 -1.109375 -1.359375q-0.359375 -0.890625 -0.359375 -1.796875q0 -1.53125 0.90625 -2.546875q0.921875 -1.015625 2.328125 -1.015625zm-2.046875 2.9375l3.96875 0q-0.0625 -0.84375 -0.625 -1.390625q-0.546875 -0.546875 -1.375 -0.546875q-0.78125 0 -1.34375 0.53125q-0.546875 0.515625 -0.625 1.40625zm7.908661 -4.84375l0 2.0625l1.375 0l0 1.0l-1.375 0l0 4.3125q0 0.515625 0.34375 0.546875q0.34375 0.03125 0.71875 0.03125l0.3125 0l0 1.0l-0.9375 0q-0.921875 0 -1.25 -0.328125q-0.3125 -0.328125 -0.3125 -1.109375l0 -4.453125l-1.1875 0l0 -1.0l1.1875 0l0 -2.0625l1.125 0zm3.822586 -0.5625l0 1.390625l-1.125 0l0 -1.390625l1.125 0zm0 2.625l0 6.890625l-1.125 0l0 -6.890625l1.125 0zm4.64859 -0.15625q1.25 0 2.03125 0.609375q0.796875 0.59375 0.9375 1.765625l-1.171875 0q-0.140625 -0.671875 -0.59375 -1.015625q-0.4375 -0.359375 -1.109375 -0.359375q-1.0625 0 -1.609375 0.703125q-0.546875 0.703125 -0.546875 1.984375q0 1.140625 0.546875 1.828125q0.546875 0.6875 1.46875 0.6875q0.828125 0 1.296875 -0.4375q0.484375 -0.453125 0.59375 -1.234375l1.15625 0q-0.1875 1.28125 -0.96875 1.984375q-0.78125 0.6875 -2.0625 0.6875q-1.5 0 -2.359375 -0.9375q-0.859375 -0.953125 -0.859375 -2.578125q0 -1.6875 0.859375 -2.6875q0.875 -1.0 2.390625 -1.0zm7.0961456 0q1.40625 0 1.984375 0.5q0.59375 0.5 0.59375 1.34375q0 3.578125 0 3.96875q0 0.390625 0.359375 0.390625q0.078125 0 0.171875 -0.015625q0.09375 -0.015625 0.171875 -0.046875l0 0.875q-0.15625 0.09375 -0.359375 0.140625q-0.203125 0.046875 -0.4375 0.046875q-0.46875 0 -0.71875 -0.25q-0.25 -0.265625 -0.25 -0.8125q-0.453125 0.53125 -1.0625 0.796875q-0.609375 0.265625 -1.3593597 0.265625q-1.078125 0 -1.6875 -0.5q-0.59375 -0.5 -0.59375 -1.421875q0 -0.9375 0.59375 -1.46875q0.59375 -0.546875 2.7812347 -0.828125q0.734375 -0.09375 1.0 -0.28125q0.265625 -0.1875 0.265625 -0.5625q0 -0.578125 -0.375 -0.859375q-0.359375 -0.28125 -1.15625 -0.28125q-0.84373474 0 -1.2656097 0.3125q-0.421875 0.3125 -0.453125 0.984375l-1.125 0q0.046875 -1.140625 0.796875 -1.71875q0.765625 -0.578125 2.1249847 -0.578125zm-1.9999847 5.1875q0 0.484375 0.34375 0.75q0.359375 0.265625 0.99998474 0.265625q0.953125 0 1.515625 -0.46875q0.578125 -0.484375 0.578125 -1.0625l0 -1.1875q-0.28125 0.203125 -0.734375 0.28125q-0.453125 0.0625 -1.21875 0.171875q-0.74998474 0.109375 -1.1249847 0.40625q-0.359375 0.296875 -0.359375 0.84375zm8.064896 0.375l0 1.421875q0 0.734375 -0.359375 1.265625q-0.359375 0.53125 -1.09375 0.75l0 -0.65625q0.34375 -0.125 0.546875 -0.453125q0.21875 -0.328125 0.21875 -0.765625l0 -0.078125l-0.78125 0l0 -1.484375l1.46875 0zm6.156128 -8.03125l3.703125 9.515625l-1.390625 0l-1.03125 -2.859375l-4.03125 0l-1.078125 2.859375l-1.296875 0l3.71875 -9.515625l1.40625 0zm-0.75 1.140625l-1.59375 4.4375l3.21875 0l-1.578125 -4.4375l-0.046875 0zm8.635956 1.328125q0.046875 0 0.078125 0q0.03125 0 0.078125 0l0 1.203125q-1.28125 0 -1.890625 0.671875q-0.59375 0.671875 -0.59375 2.09375l0 3.078125l-1.140625 0l0 -6.890625l1.0625 0l0 1.453125l0.03125 0q0.390625 -0.828125 0.96875 -1.21875q0.59375 -0.390625 1.40625 -0.390625zm2.2039795 -2.46875l0 1.390625l-1.125 0l0 -1.390625l1.125 0zm0 2.625l0 6.890625l-1.125 0l0 -6.890625l1.125 0zm4.5861206 -0.15625q1.40625 0 1.984375 0.5q0.59375 0.5 0.59375 1.34375q0 3.578125 0 3.96875q0 0.390625 0.359375 0.390625q0.078125 0 0.171875 -0.015625q0.09375 -0.015625 0.171875 -0.046875l0 0.875q-0.15625 0.09375 -0.359375 0.140625q-0.203125 0.046875 -0.4375 0.046875q-0.46875 0 -0.71875 -0.25q-0.25 -0.265625 -0.25 -0.8125q-0.453125 0.53125 -1.0625 0.796875q-0.609375 0.265625 -1.359375 0.265625q-1.078125 0 -1.6875 -0.5q-0.59375 -0.5 -0.59375 -1.421875q0 -0.9375 0.59375 -1.46875q0.59375 -0.546875 2.78125 -0.828125q0.734375 -0.09375 1.0 -0.28125q0.265625 -0.1875 0.265625 -0.5625q0 -0.578125 -0.375 -0.859375q-0.359375 -0.28125 -1.15625 -0.28125q-0.84375 0 -1.265625 0.3125q-0.421875 0.3125 -0.453125 0.984375l-1.125 0q0.046875 -1.140625 0.796875 -1.71875q0.765625 -0.578125 2.125 -0.578125zm-2.0 5.1875q0 0.484375 0.34375 0.75q0.359375 0.265625 1.0 0.265625q0.953125 0 1.515625 -0.46875q0.578125 -0.484375 0.578125 -1.0625l0 -1.1875q-0.28125 0.203125 -0.734375 0.28125q-0.453125 0.0625 -1.21875 0.171875q-0.75 0.109375 -1.125 0.40625q-0.359375 0.296875 -0.359375 0.84375zm7.5336304 -7.65625l0 9.515625l-1.125 0l0 -9.515625l1.125 0zm3.4923706 8.03125l0 1.421875q0 0.734375 -0.359375 1.265625q-0.359375 0.53125 -1.09375 0.75l0 -0.65625q0.34375 -0.125 0.546875 -0.453125q0.21875 -0.328125 0.21875 -0.765625l0 -0.078125l-0.78125 0l0 -1.484375l1.46875 0zm4.2654724 -5.5625q1.390625 0 2.0625 0.546875q0.6875 0.53125 0.75 1.609375l-1.125 0l0 -0.015625q-0.046875 -0.546875 -0.484375 -0.84375q-0.4375 -0.296875 -1.109375 -0.296875q-0.6875 0 -1.09375 0.234375q-0.390625 0.21875 -0.390625 0.640625q0 0.375 0.34375 0.625q0.359375 0.234375 1.0625 0.375l1.0625 0.25q1.0 0.21875 1.515625 0.6875q0.53125 0.453125 0.53125 1.21875q0 1.015625 -0.796875 1.59375q-0.78125 0.578125 -2.140625 0.578125q-1.3125 0 -2.09375 -0.578125q-0.765625 -0.59375 -0.828125 -1.75l1.140625 0q0.015625 0.640625 0.5 0.984375q0.5 0.34375 1.34375 0.34375q0.828125 0 1.25 -0.25q0.421875 -0.265625 0.421875 -0.78125q0 -0.453125 -0.421875 -0.71875q-0.421875 -0.28125 -1.71875 -0.53125q-1.296875 -0.265625 -1.828125 -0.71875q-0.53125 -0.46875 -0.53125 -1.25q0 -0.90625 0.734375 -1.421875q0.734375 -0.53125 1.84375 -0.53125zm7.1953125 0q1.40625 0 1.984375 0.5q0.59375 0.5 0.59375 1.34375q0 3.578125 0 3.96875q0 0.390625 0.359375 0.390625q0.078125 0 0.171875 -0.015625q0.09375 -0.015625 0.171875 -0.046875l0 0.875q-0.15625 0.09375 -0.359375 0.140625q-0.203125 0.046875 -0.4375 0.046875q-0.46875 0 -0.71875 -0.25q-0.25 -0.265625 -0.25 -0.8125q-0.453125 0.53125 -1.0625 0.796875q-0.609375 0.265625 -1.359375 0.265625q-1.078125 0 -1.6875 -0.5q-0.59375 -0.5 -0.59375 -1.421875q0 -0.9375 0.59375 -1.46875q0.59375 -0.546875 2.78125 -0.828125q0.734375 -0.09375 1.0 -0.28125q0.265625 -0.1875 0.265625 -0.5625q0 -0.578125 -0.375 -0.859375q-0.359375 -0.28125 -1.15625 -0.28125q-0.84375 0 -1.265625 0.3125q-0.421875 0.3125 -0.453125 0.984375l-1.125 0q0.046875 -1.140625 0.796875 -1.71875q0.765625 -0.578125 2.125 -0.578125zm-2.0 5.1875q0 0.484375 0.34375 0.75q0.359375 0.265625 1.0 0.265625q0.953125 0 1.515625 -0.46875q0.578125 -0.484375 0.578125 -1.0625l0 -1.1875q-0.28125 0.203125 -0.734375 0.28125q-0.453125 0.0625 -1.21875 0.171875q-0.75 0.109375 -1.125 0.40625q-0.359375 0.296875 -0.359375 0.84375zm9.674286 -5.1875q1.25 0 1.8125 0.640625q0.5625 0.640625 0.5625 1.8125l0 4.59375l-1.140625 0l0 -4.703125q0 -0.59375 -0.375 -0.96875q-0.375 -0.375 -1.03125 -0.375q-0.953125 0 -1.5 0.59375q-0.53125 0.578125 -0.53125 1.515625l0 3.9375l-1.125 0l0 -6.890625l1.0625 0l0 1.09375l0.03125 0q0.375 -0.640625 0.921875 -0.9375q0.546875 -0.3125 1.3125 -0.3125zm6.3656006 0q1.390625 0 2.0625 0.546875q0.6875 0.53125 0.75 1.609375l-1.125 0l0 -0.015625q-0.046875 -0.546875 -0.484375 -0.84375q-0.4375 -0.296875 -1.109375 -0.296875q-0.6875 0 -1.09375 0.234375q-0.390625 0.21875 -0.390625 0.640625q0 0.375 0.34375 0.625q0.359375 0.234375 1.0625 0.375l1.0625 0.25q1.0 0.21875 1.515625 0.6875q0.53125 0.453125 0.53125 1.21875q0 1.015625 -0.796875 1.59375q-0.78125 0.578125 -2.140625 0.578125q-1.3125 0 -2.09375 -0.578125q-0.765625 -0.59375 -0.828125 -1.75l1.140625 0q0.015625 0.640625 0.5 0.984375q0.5 0.34375 1.34375 0.34375q0.828125 0 1.25 -0.25q0.421875 -0.265625 0.421875 -0.78125q0 -0.453125 -0.421875 -0.71875q-0.421875 -0.28125 -1.71875 -0.53125q-1.296875 -0.265625 -1.828125 -0.71875q-0.53125 -0.46875 -0.53125 -1.25q0 -0.90625 0.734375 -1.421875q0.734375 -0.53125 1.84375 -0.53125zm8.0390625 2.8125l0 1.0625l-3.859375 0l0 -1.0625l3.859375 0zm3.8117676 -2.8125q1.390625 0 2.0625 0.546875q0.6875 0.53125 0.75 1.609375l-1.125 0l0 -0.015625q-0.046875 -0.546875 -0.484375 -0.84375q-0.4375 -0.296875 -1.109375 -0.296875q-0.6875 0 -1.09375 0.234375q-0.390625 0.21875 -0.390625 0.640625q0 0.375 0.34375 0.625q0.359375 0.234375 1.0625 0.375l1.0625 0.25q1.0 0.21875 1.515625 0.6875q0.53125 0.453125 0.53125 1.21875q0 1.015625 -0.796875 1.59375q-0.78125 0.578125 -2.140625 0.578125q-1.3125 0 -2.09375 -0.578125q-0.765625 -0.59375 -0.828125 -1.75l1.140625 0q0.015625 0.640625 0.5 0.984375q0.5 0.34375 1.34375 0.34375q0.828125 0 1.25 -0.25q0.421875 -0.265625 0.421875 -0.78125q0 -0.453125 -0.421875 -0.71875q-0.421875 -0.28125 -1.71875 -0.53125q-1.296875 -0.265625 -1.828125 -0.71875q-0.53125 -0.46875 -0.53125 -1.25q0 -0.90625 0.734375 -1.421875q0.734375 -0.53125 1.84375 -0.53125zm7.2421875 0q1.484375 0 2.296875 1.078125q0.828125 1.0625 0.828125 2.734375l0 0.125l-5.171875 0l0 0.09375q0 0.984375 0.578125 1.578125q0.578125 0.59375 1.578125 0.59375q0.75 0 1.1875 -0.34375q0.453125 -0.359375 0.59375 -1.0l1.125 0q-0.234375 1.140625 -1.015625 1.75q-0.765625 0.59375 -1.9375 0.59375q-1.078125 0 -1.828125 -0.484375q-0.75 -0.484375 -1.109375 -1.359375q-0.359375 -0.890625 -0.359375 -1.796875q0 -1.53125 0.90625 -2.546875q0.921875 -1.015625 2.328125 -1.015625zm-2.046875 2.9375l3.96875 0q-0.0625 -0.84375 -0.625 -1.390625q-0.546875 -0.546875 -1.375 -0.546875q-0.78125 0 -1.34375 0.53125q-0.546875 0.515625 -0.625 1.40625zm9.768066 -2.9375q0.046875 0 0.078125 0q0.03125 0 0.078125 0l0 1.203125q-1.28125 0 -1.890625 0.671875q-0.59375 0.671875 -0.59375 2.09375l0 3.078125l-1.140625 0l0 -6.890625l1.0625 0l0 1.453125l0.03125 0q0.390625 -0.828125 0.96875 -1.21875q0.59375 -0.390625 1.40625 -0.390625zm2.2039795 -2.46875l0 1.390625l-1.125 0l0 -1.390625l1.125 0zm0 2.625l0 6.890625l-1.125 0l0 -6.890625l1.125 0zm4.132965 -2.734375q0.140625 0 0.359375 0.03125q0.234375 0.03125 0.375 0.078125l0 0.984375q-0.125 -0.046875 -0.3125 -0.0625q-0.1875 -0.03125 -0.328125 -0.03125q-0.46875 0 -0.671875 0.203125q-0.1875 0.1875 -0.1875 0.546875l0 0.984375l1.328125 0l0 1.0l-1.328125 0l0 5.890625l-1.125 0l0 -5.890625l-1.171875 0l0 -1.0l1.171875 0l0 -1.078125q0 -0.765625 0.46875 -1.203125q0.484375 -0.453125 1.421875 -0.453125z" fill-rule="nonzero"></path><path fill="#ff007c" d="m20.67979 288.60104l535.2441 0l0 69.7323l-535.2441 0z" fill-rule="evenodd"></path><path stroke="#000000" stroke-width="1.0" stroke-linejoin="round" stroke-linecap="butt" d="m20.67979 288.60104l535.2441 0l0 69.7323l-535.2441 0z" fill-rule="evenodd"></path><path fill="#000000" fill-opacity="0.0" d="m20.67979 358.33334l535.2441 0l0 31.559052l-535.2441 0z" fill-rule="evenodd"></path><path fill="#000000" d="m33.257915 370.85208l-0.375 2.71875l1.640625 0l0.390625 -2.671875l0.015625 -0.046875l0.90625 0l-0.390625 2.71875l1.1875 0l0 0.90625l-1.296875 0l-0.28125 2.0l1.21875 0l0 0.90625l-1.359375 0l-0.390625 2.75l-0.90625 0l0.390625 -2.75l-1.65625 0l-0.390625 2.75l-0.921875 0l0.390625 -2.75l-1.296875 0l0 -0.90625l1.421875 0l0.28125 -2.0l-1.359375 0l0 -0.90625l1.484375 0l0.375 -2.671875l0.015625 -0.046875l0.90625 0zm-0.78125 5.625l1.65625 0l0.28125 -2.0l-1.65625 0l-0.28125 2.0zm11.896851 -5.859375l0 1.0625l-4.984375 0l0 3.03125l4.375 0l0 1.0625l-4.375 0l0 4.359375l-1.25 0l0 -9.515625l6.234375 0zm7.6532593 0l0 1.0625l-4.984375 0l0 3.03125l4.375 0l0 1.0625l-4.375 0l0 4.359375l-1.25 0l0 -9.515625l6.234375 0zm4.0751343 0.0625q0.796875 0 1.375 0.265625q0.578125 0.25 0.984375 0.78125q0.796875 1.015625 0.796875 3.765625q0 1.375 -0.203125 2.3125q-0.1875 0.921875 -0.59375 1.453125q-0.390625 0.5 -0.984375 0.765625q-0.578125 0.265625 -1.375 0.265625q-1.578125 0 -2.359375 -1.046875q-0.78125 -1.0625 -0.78125 -3.75q0 -2.71875 0.78125 -3.75q0.796875 -1.0625 2.359375 -1.0625zm-1.953125 4.796875q0 1.140625 0.125 1.890625q0.140625 0.734375 0.375 1.140625q0.5 0.78125 1.453125 0.78125q1.046875 0 1.515625 -0.90625q0.21875 -0.453125 0.328125 -1.15625q0.109375 -0.71875 0.109375 -1.703125q0 -0.34375 -0.015625 -0.75q0 -0.40625 -0.0625 -0.828125q-0.046875 -0.421875 -0.171875 -0.828125q-0.109375 -0.40625 -0.3125 -0.71875q-0.21875 -0.3125 -0.5625 -0.515625q-0.328125 -0.203125 -0.84375 -0.203125q-0.453125 0 -0.8125 0.203125q-0.34375 0.1875 -0.609375 0.578125q-0.515625 0.765625 -0.515625 3.015625zm9.365601 -4.796875q0.7968712 0 1.3749962 0.265625q0.578125 0.25 0.984375 0.78125q0.796875 1.015625 0.796875 3.765625q0 1.375 -0.203125 2.3125q-0.1875 0.921875 -0.59375 1.453125q-0.390625 0.5 -0.984375 0.765625q-0.578125 0.265625 -1.3749962 0.265625q-1.578125 0 -2.359375 -1.046875q-0.78125 -1.0625 -0.78125 -3.75q0 -2.71875 0.78125 -3.75q0.796875 -1.0625 2.359375 -1.0625zm-1.953125 4.796875q0 1.140625 0.125 1.890625q0.140625 0.734375 0.375 1.140625q0.5 0.78125 1.453125 0.78125q1.0468712 0 1.5156212 -0.90625q0.21875 -0.453125 0.328125 -1.15625q0.109375 -0.71875 0.109375 -1.703125q0 -0.34375 -0.015625 -0.75q0 -0.40625 -0.0625 -0.828125q-0.046875 -0.421875 -0.171875 -0.828125q-0.109375 -0.40625 -0.3125 -0.71875q-0.21875 -0.3125 -0.5625 -0.515625q-0.328125 -0.203125 -0.8437462 -0.203125q-0.453125 0 -0.8125 0.203125q-0.34375 0.1875 -0.609375 0.578125q-0.515625 0.765625 -0.515625 3.015625zm12.443722 -4.625l0 0.96875q-1.453125 1.453125 -2.46875 3.765625q-1.0 2.296875 -1.15625 4.546875l-1.265625 0q0.15625 -2.203125 1.09375 -4.3125q0.953125 -2.109375 2.640625 -3.90625l-4.96875 0l0 -1.0625l6.125 0zm5.7093506 -0.46875q1.578125 0 2.640625 0.828125q1.0625 0.8125 1.28125 2.265625l-1.265625 0q-0.21875 -0.96875 -0.921875 -1.484375q-0.703125 -0.53125 -1.75 -0.53125q-1.515625 0 -2.375 1.0625q-0.84375 1.0625 -0.84375 2.78125q0 1.828125 0.828125 2.90625q0.84375 1.078125 2.40625 1.078125q1.15625 0 1.90625 -0.734375q0.75 -0.734375 0.84375 -2.0l1.265625 0q-0.203125 1.84375 -1.28125 2.828125q-1.078125 0.984375 -2.84375 0.984375q-2.046875 0 -3.21875 -1.359375q-1.171875 -1.359375 -1.171875 -3.609375q0 -2.21875 1.203125 -3.609375q1.21875 -1.40625 3.296875 -1.40625zm12.76564 5.515625l0 1.0625l-3.859375 0l0 -1.0625l3.859375 0zm8.6553955 -2.8125q0.046875 0 0.078125 0q0.03125 0 0.078125 0l0 1.203125q-1.28125 0 -1.890625 0.671875q-0.59375 0.671875 -0.59375 2.09375l0 3.078125l-1.140625 0l0 -6.890625l1.0625 0l0 1.453125l0.03125 0q0.390625 -0.828125 0.96875 -1.21875q0.59375 -0.390625 1.40625 -0.390625zm3.8133698 0q0.71875 0 1.25 0.3125q0.53125 0.3125 0.8125 0.828125l0.015625 0l0 -0.984375l1.0625 0l0 6.375q0 1.625 -0.78125 2.46875q-0.78125 0.84375 -2.40625 0.84375q-1.1875 0 -2.0 -0.53125q-0.8125 -0.515625 -0.859375 -1.484375l1.125 0q0.03125 0.515625 0.5625 0.8125q0.546875 0.296875 1.21875 0.296875q1.015625 0 1.546875 -0.671875q0.53125 -0.65625 0.53125 -1.953125l0 -0.4375l-0.03125 0q-0.265625 0.578125 -0.84375 0.921875q-0.578125 0.328125 -1.3125 0.328125q-1.390625 0 -2.234375 -0.953125q-0.828125 -0.96875 -0.828125 -2.53125q0 -1.578125 0.828125 -2.609375q0.84375 -1.03125 2.34375 -1.03125zm-1.984375 3.5q0 1.234375 0.515625 1.9375q0.515625 0.6875 1.4375 0.6875q0.9375 0 1.484375 -0.71875q0.5625 -0.734375 0.5625 -1.9375q0 -1.109375 -0.515625 -1.78125q-0.515625 -0.6875 -1.453125 -0.6875q-0.953125 0 -1.5 0.6875q-0.53125 0.671875 -0.53125 1.8125zm8.012634 -5.96875l0 3.5625l0.015625 0q0.265625 -0.53125 0.828125 -0.8125q0.578125 -0.28125 1.375 -0.28125q1.484375 0 2.328125 1.015625q0.84375 1.015625 0.84375 2.609375q0 1.59375 -0.84375 2.59375q-0.84375 0.984375 -2.296875 0.984375q-0.640625 0 -1.265625 -0.265625q-0.609375 -0.265625 -0.96875 -0.8125l-0.015625 0l0 0.921875l-1.140625 0l0 -9.515625l1.140625 0zm-0.046875 6.0625q0 1.203125 0.578125 1.90625q0.578125 0.703125 1.59375 0.703125q0.984375 0 1.515625 -0.703125q0.546875 -0.703125 0.546875 -1.953125q0 -1.109375 -0.578125 -1.828125q-0.5625 -0.71875 -1.5625 -0.71875q-1.0 0 -1.546875 0.734375q-0.546875 0.71875 -0.546875 1.859375zm9.494308 -6.296875q-0.890625 1.40625 -1.328125 2.90625q-0.421875 1.484375 -0.421875 3.25q0 1.78125 0.421875 3.28125q0.4375 1.5 1.328125 2.953125l-0.859375 0q-1.140625 -1.78125 -1.625 -3.25q-0.46875 -1.484375 -0.46875 -2.984375q0 -1.5625 0.53125 -3.171875q0.53125 -1.609375 1.5625 -2.984375l0.859375 0zm3.496048 0.296875q1.3125 0 2.140625 0.75q0.828125 0.734375 0.828125 1.96875q0 0.984375 -0.546875 1.78125q-0.546875 0.78125 -2.328125 1.796875q-1.078125 0.625 -1.53125 1.125q-0.453125 0.484375 -0.546875 1.03125l4.84375 0l0 1.0l-6.171875 0q0.109375 -1.171875 0.609375 -2.0625q0.515625 -0.890625 1.921875 -1.71875q1.640625 -1.015625 2.078125 -1.578125q0.453125 -0.578125 0.453125 -1.375q0 -0.75 -0.515625 -1.234375q-0.515625 -0.484375 -1.296875 -0.484375q-0.859375 0 -1.359375 0.640625q-0.484375 0.640625 -0.484375 1.609375l0 0.09375l-1.140625 0l0 -0.234375q0 -1.40625 0.828125 -2.25q0.84375 -0.859375 2.21875 -0.859375zm10.053108 0.171875l0 0.984375l-3.8125 0l-0.5 2.71875l0.015625 0.03125q0.296875 -0.328125 0.75 -0.5q0.453125 -0.171875 1.015625 -0.171875q1.375 0 2.203125 0.859375q0.84375 0.859375 0.84375 2.359375q0 1.359375 -0.921875 2.265625q-0.90625 0.890625 -2.375 0.890625q-1.265625 0 -2.125 -0.71875q-0.859375 -0.734375 -0.890625 -1.96875l0 -0.015625l1.125 0q0.0625 0.75 0.609375 1.234375q0.5625 0.46875 1.375 0.46875q0.875 0 1.4375 -0.59375q0.5625 -0.59375 0.5625 -1.640625q0 -0.96875 -0.609375 -1.546875q-0.609375 -0.59375 -1.515625 -0.59375q-0.5 0 -0.953125 0.21875q-0.4375 0.21875 -0.8125 0.671875l-0.96875 -0.0625l0.875 -4.890625l4.671875 0zm7.4124756 0l0 0.984375l-3.8125 0l-0.5 2.71875l0.015625 0.03125q0.296875 -0.328125 0.75 -0.5q0.453125 -0.171875 1.015625 -0.171875q1.375 0 2.203125 0.859375q0.84375 0.859375 0.84375 2.359375q0 1.359375 -0.921875 2.265625q-0.90625 0.890625 -2.375 0.890625q-1.265625 0 -2.125 -0.71875q-0.859375 -0.734375 -0.890625 -1.96875l0 -0.015625l1.125 0q0.0625 0.75 0.609375 1.234375q0.5625 0.46875 1.375 0.46875q0.875 0 1.4375 -0.59375q0.5625 -0.59375 0.5625 -1.640625q0 -0.96875 -0.609375 -1.546875q-0.609375 -0.59375 -1.515625 -0.59375q-0.5 0 -0.953125 0.21875q-0.4375 0.21875 -0.8125 0.671875l-0.96875 -0.0625l0.875 -4.890625l4.671875 0zm3.7249756 7.796875l0 1.421875q0 0.734375 -0.359375 1.265625q-0.359375 0.53125 -1.09375 0.75l0 -0.65625q0.34375 -0.125 0.546875 -0.453125q0.21875 -0.328125 0.21875 -0.765625l0 -0.078125l-0.78125 0l0 -1.484375l1.46875 0zm4.8279877 -7.96875q0.796875 0 1.375 0.265625q0.578125 0.25 0.984375 0.78125q0.796875 1.015625 0.796875 3.765625q0 1.375 -0.203125 2.3125q-0.1875 0.921875 -0.59375 1.453125q-0.390625 0.5 -0.984375 0.765625q-0.578125 0.265625 -1.375 0.265625q-1.578125 0 -2.359375 -1.046875q-0.78125 -1.0625 -0.78125 -3.75q0 -2.71875 0.78125 -3.75q0.796875 -1.0625 2.359375 -1.0625zm-1.953125 4.796875q0 1.140625 0.125 1.890625q0.140625 0.734375 0.375 1.140625q0.5 0.78125 1.453125 0.78125q1.046875 0 1.515625 -0.90625q0.21875 -0.453125 0.328125 -1.15625q0.109375 -0.71875 0.109375 -1.703125q0 -0.34375 -0.015625 -0.75q0 -0.40625 -0.0625 -0.828125q-0.046875 -0.421875 -0.171875 -0.828125q-0.109375 -0.40625 -0.3125 -0.71875q-0.21875 -0.3125 -0.5625 -0.515625q-0.328125 -0.203125 -0.84375 -0.203125q-0.453125 0 -0.8125 0.203125q-0.34375 0.1875 -0.609375 0.578125q-0.515625 0.765625 -0.515625 3.015625zm8.240601 3.171875l0 1.421875q0 0.734375 -0.359375 1.265625q-0.359375 0.53125 -1.09375 0.75l0 -0.65625q0.34375 -0.125 0.546875 -0.453125q0.21875 -0.328125 0.21875 -0.765625l0 -0.078125l-0.78125 0l0 -1.484375l1.46875 0zm5.8748627 -7.96875l0 9.453125l-1.140625 0l0 -6.765625l-2.453125 0l0 -0.90625l0.046875 0q1.1875 0 1.84375 -0.421875q0.65625 -0.4375 0.828125 -1.359375l0.875 0zm6.2874756 0q1.3125 0 2.140625 0.75q0.828125 0.734375 0.828125 1.96875q0 0.984375 -0.546875 1.78125q-0.546875 0.78125 -2.328125 1.796875q-1.078125 0.625 -1.53125 1.125q-0.453125 0.484375 -0.546875 1.03125l4.84375 0l0 1.0l-6.171875 0q0.109375 -1.171875 0.609375 -2.0625q0.515625 -0.890625 1.921875 -1.71875q1.640625 -1.015625 2.078125 -1.578125q0.453125 -0.578125 0.453125 -1.375q0 -0.75 -0.515625 -1.234375q-0.515625 -0.484375 -1.296875 -0.484375q-0.859375 0 -1.359375 0.640625q-0.484375 0.640625 -0.484375 1.609375l0 0.09375l-1.140625 0l0 -0.234375q0 -1.40625 0.828125 -2.25q0.84375 -0.859375 2.21875 -0.859375zm9.365601 0l0 6.234375l1.28125 0l0 1.0l-1.28125 0l0 2.21875l-1.0625 0l0 -2.21875l-4.140625 0l0 -1.09375l4.296875 -6.140625l0.90625 0zm-1.09375 1.625l-3.140625 4.609375l3.171875 0l0 -4.609375l-0.03125 0zm3.6624756 -1.921875q1.0625 1.640625 1.578125 3.140625q0.515625 1.5 0.515625 3.109375q0 1.609375 -0.546875 3.203125q-0.53125 1.578125 -1.546875 2.9375l-0.859375 0q0.890625 -1.40625 1.3125 -2.890625q0.4375 -1.5 0.4375 -3.25q0 -1.78125 -0.4375 -3.28125q-0.421875 -1.515625 -1.3125 -2.96875l0.859375 0zm10.933411 5.515625l0 1.0625l-3.859375 0l0 -1.0625l3.859375 0zm9.4522705 -5.515625q1.578125 0 2.640625 0.828125q1.0625 0.8125 1.28125 2.265625l-1.265625 0q-0.21875 -0.96875 -0.921875 -1.484375q-0.703125 -0.53125 -1.75 -0.53125q-1.515625 0 -2.375 1.0625q-0.84375 1.0625 -0.84375 2.78125q0 1.828125 0.828125 2.90625q0.84375 1.078125 2.40625 1.078125q1.15625 0 1.90625 -0.734375q0.75 -0.734375 0.84375 -2.0l1.265625 0q-0.203125 1.84375 -1.28125 2.828125q-1.078125 0.984375 -2.84375 0.984375q-2.046875 0 -3.21875 -1.359375q-1.171875 -1.359375 -1.171875 -3.609375q0 -2.21875 1.203125 -3.609375q1.21875 -1.40625 3.296875 -1.40625zm7.3439026 0.234375l3.0 8.0l3.015625 -8.0l1.734375 0l0 9.515625l-1.203125 0l0 -7.921875l-0.03125 0l-2.96875 7.921875l-1.078125 0l-2.96875 -7.921875l-0.03125 0l0 7.921875l-1.203125 0l0 -9.515625l1.734375 0zm10.344421 0l2.859375 4.53125l2.78125 -4.53125l1.4375 0l-3.640625 5.625l0 3.890625l-1.265625 0l0 -3.890625l-3.671875 -5.625l1.5 0zm9.401581 0l0 4.75l4.828125 -4.75l1.640625 0l-4.015625 3.84375l4.171875 5.671875l-1.59375 0l-3.4375 -4.8125l-1.59375 1.484375l0 3.328125l-1.25 0l0 -9.515625l1.25 0zm13.873993 -0.234375q-0.890625 1.40625 -1.328125 2.90625q-0.421875 1.484375 -0.421875 3.25q0 1.78125 0.421875 3.28125q0.4375 1.5 1.328125 2.953125l-0.859375 0q-1.140625 -1.78125 -1.625 -3.25q-0.46875 -1.484375 -0.46875 -2.984375q0 -1.5625 0.53125 -3.171875q0.53125 -1.609375 1.5625 -2.984375l0.859375 0zm3.574173 0.296875q0.796875 0 1.375 0.265625q0.578125 0.25 0.984375 0.78125q0.796875 1.015625 0.796875 3.765625q0 1.375 -0.203125 2.3125q-0.1875 0.921875 -0.59375 1.453125q-0.390625 0.5 -0.984375 0.765625q-0.578125 0.265625 -1.375 0.265625q-1.578125 0 -2.359375 -1.046875q-0.78125 -1.0625 -0.78125 -3.75q0 -2.71875 0.78125 -3.75q0.796875 -1.0625 2.359375 -1.0625zm-1.953125 4.796875q0 1.140625 0.125 1.890625q0.140625 0.734375 0.375 1.140625q0.5 0.78125 1.453125 0.78125q1.046875 0 1.515625 -0.90625q0.21875 -0.453125 0.328125 -1.15625q0.109375 -0.71875 0.109375 -1.703125q0 -0.34375 -0.015625 -0.75q0 -0.40625 -0.0625 -0.828125q-0.046875 -0.421875 -0.171875 -0.828125q-0.109375 -0.40625 -0.3125 -0.71875q-0.21875 -0.3125 -0.5625 -0.515625q-0.328125 -0.203125 -0.84375 -0.203125q-0.453125 0 -0.8125 0.203125q-0.34375 0.1875 -0.609375 0.578125q-0.515625 0.765625 -0.515625 3.015625zm10.334351 -5.09375l-3.9375 9.984375l-0.96875 0l3.9375 -9.984375l0.96875 0zm4.5164795 0.296875l0 9.453125l-1.140625 0l0 -6.765625l-2.4531097 0l0 -0.90625l0.046875 0q1.1875 0 1.8437347 -0.421875q0.65625 -0.4375 0.828125 -1.359375l0.875 0zm6.3656006 0q0.796875 0 1.375 0.265625q0.578125 0.25 0.984375 0.78125q0.796875 1.015625 0.796875 3.765625q0 1.375 -0.203125 2.3125q-0.1875 0.921875 -0.59375 1.453125q-0.390625 0.5 -0.984375 0.765625q-0.578125 0.265625 -1.375 0.265625q-1.578125 0 -2.359375 -1.046875q-0.78125 -1.0625 -0.78125 -3.75q0 -2.71875 0.78125 -3.75q0.796875 -1.0625 2.359375 -1.0625zm-1.953125 4.796875q0 1.140625 0.125 1.890625q0.140625 0.734375 0.375 1.140625q0.5 0.78125 1.453125 0.78125q1.046875 0 1.515625 -0.90625q0.21875 -0.453125 0.328125 -1.15625q0.109375 -0.71875 0.109375 -1.703125q0 -0.34375 -0.015625 -0.75q0 -0.40625 -0.0625 -0.828125q-0.046875 -0.421875 -0.171875 -0.828125q-0.109375 -0.40625 -0.3125 -0.71875q-0.21875 -0.3125 -0.5625 -0.515625q-0.328125 -0.203125 -0.84375 -0.203125q-0.453125 0 -0.8125 0.203125q-0.34375 0.1875 -0.609375 0.578125q-0.515625 0.765625 -0.515625 3.015625zm9.365601 -4.796875q0.796875 0 1.375 0.265625q0.578125 0.25 0.984375 0.78125q0.796875 1.015625 0.796875 3.765625q0 1.375 -0.203125 2.3125q-0.1875 0.921875 -0.59375 1.453125q-0.390625 0.5 -0.984375 0.765625q-0.578125 0.265625 -1.375 0.265625q-1.578125 0 -2.359375 -1.046875q-0.78125 -1.0625 -0.78125 -3.75q0 -2.71875 0.78125 -3.75q0.796875 -1.0625 2.359375 -1.0625zm-1.953125 4.796875q0 1.140625 0.125 1.890625q0.140625 0.734375 0.375 1.140625q0.5 0.78125 1.453125 0.78125q1.046875 0 1.515625 -0.90625q0.21875 -0.453125 0.328125 -1.15625q0.109375 -0.71875 0.109375 -1.703125q0 -0.34375 -0.015625 -0.75q0 -0.40625 -0.0625 -0.828125q-0.046875 -0.421875 -0.171875 -0.828125q-0.109375 -0.40625 -0.3125 -0.71875q-0.21875 -0.3125 -0.5625 -0.515625q-0.328125 -0.203125 -0.84375 -0.203125q-0.453125 0 -0.8125 0.203125q-0.34375 0.1875 -0.609375 0.578125q-0.515625 0.765625 -0.515625 3.015625zm9.365601 -4.796875q0.796875 0 1.375 0.265625q0.578125 0.25 0.984375 0.78125q0.796875 1.015625 0.796875 3.765625q0 1.375 -0.203125 2.3125q-0.1875 0.921875 -0.59375 1.453125q-0.390625 0.5 -0.984375 0.765625q-0.578125 0.265625 -1.375 0.265625q-1.578125 0 -2.359375 -1.046875q-0.78125 -1.0625 -0.78125 -3.75q0 -2.71875 0.78125 -3.75q0.796875 -1.0625 2.359375 -1.0625zm-1.953125 4.796875q0 1.140625 0.125 1.890625q0.140625 0.734375 0.375 1.140625q0.5 0.78125 1.453125 0.78125q1.046875 0 1.515625 -0.90625q0.21875 -0.453125 0.328125 -1.15625q0.109375 -0.71875 0.109375 -1.703125q0 -0.34375 -0.015625 -0.75q0 -0.40625 -0.0625 -0.828125q-0.046875 -0.421875 -0.171875 -0.828125q-0.109375 -0.40625 -0.3125 -0.71875q-0.21875 -0.3125 -0.5625 -0.515625q-0.328125 -0.203125 -0.84375 -0.203125q-0.453125 0 -0.8125 0.203125q-0.34375 0.1875 -0.609375 0.578125q-0.515625 0.765625 -0.515625 3.015625zm10.334351 -5.09375l-3.9375 9.984375l-0.96875 0l3.9375 -9.984375l0.96875 0zm6.0321045 0.46875l0 0.984375l-3.8125 0l-0.5 2.71875l0.015625 0.03125q0.296875 -0.328125 0.75 -0.5q0.453125 -0.171875 1.015625 -0.171875q1.375 0 2.203125 0.859375q0.84375 0.859375 0.84375 2.359375q0 1.359375 -0.921875 2.265625q-0.90625 0.890625 -2.375 0.890625q-1.265625 0 -2.125 -0.71875q-0.859375 -0.734375 -0.890625 -1.96875l0 -0.015625l1.125 0q0.0625 0.75 0.609375 1.234375q0.5625 0.46875 1.375 0.46875q0.875 0 1.4375 -0.59375q0.5625 -0.59375 0.5625 -1.640625q0 -0.96875 -0.609375 -1.546875q-0.609375 -0.59375 -1.515625 -0.59375q-0.5 0 -0.953125 0.21875q-0.4375 0.21875 -0.8125 0.671875l-0.96875 -0.0625l0.875 -4.890625l4.671875 0zm5.8968506 -0.171875l0 9.453125l-1.140625 0l0 -6.765625l-2.453125 0l0 -0.90625l0.046875 0q1.1875 0 1.84375 -0.421875q0.65625 -0.4375 0.828125 -1.359375l0.875 0zm8.240601 0l0 6.234375l1.28125 0l0 1.0l-1.28125 0l0 2.21875l-1.0625 0l0 -2.21875l-4.140625 0l0 -1.09375l4.296875 -6.140625l0.90625 0zm-1.09375 1.625l-3.140625 4.609375l3.171875 0l0 -4.609375l-0.03125 0zm7.5999756 -1.921875l-3.9375 9.984375l-0.96875 0l3.9375 -9.984375l0.96875 0zm3.4696045 0.296875q0.796875 0 1.375 0.265625q0.578125 0.25 0.984375 0.78125q0.796875 1.015625 0.796875 3.765625q0 1.375 -0.203125 2.3125q-0.1875 0.921875 -0.59375 1.453125q-0.390625 0.5 -0.984375 0.765625q-0.578125 0.265625 -1.375 0.265625q-1.578125 0 -2.359375 -1.046875q-0.78125 -1.0625 -0.78125 -3.75q0 -2.71875 0.78125 -3.75q0.796875 -1.0625 2.359375 -1.0625zm-1.953125 4.796875q0 1.140625 0.125 1.890625q0.140625 0.734375 0.375 1.140625q0.5 0.78125 1.453125 0.78125q1.046875 0 1.515625 -0.90625q0.21875 -0.453125 0.328125 -1.15625q0.109375 -0.71875 0.109375 -1.703125q0 -0.34375 -0.015625 -0.75q0 -0.40625 -0.0625 -0.828125q-0.046875 -0.421875 -0.171875 -0.828125q-0.109375 -0.40625 -0.3125 -0.71875q-0.21875 -0.3125 -0.5625 -0.515625q-0.328125 -0.203125 -0.84375 -0.203125q-0.453125 0 -0.8125 0.203125q-0.34375 0.1875 -0.609375 0.578125q-0.515625 0.765625 -0.515625 3.015625zm6.3968506 -5.09375q1.0625 1.640625 1.578125 3.140625q0.515625 1.5 0.515625 3.109375q0 1.609375 -0.546875 3.203125q-0.53125 1.578125 -1.546875 2.9375l-0.859375 0q0.890625 -1.40625 1.3125 -2.890625q0.4375 -1.5 0.4375 -3.25q0 -1.78125 -0.4375 -3.28125q-0.421875 -1.515625 -1.3125 -2.96875l0.859375 0z" fill-rule="nonzero"></path></g></svg>

